<svg width="135" height="141" viewBox="0 0 135 141" fill="none" xmlns="http://www.w3.org/2000/svg">
<g clip-path="url(#clip0_3_108)">
<path d="M90.5647 12.5332C92.8867 15.2011 95.1818 17.6578 97.2565 20.309C98.0036 21.2706 98.2132 22.6823 98.6701 23.8829C97.5629 24.2831 96.4664 25.0167 95.3538 25.0279C88.103 25.1335 80.8468 25.0779 73.5961 25.0779C72.6286 25.0779 71.6611 25.0779 70.3496 25.0779C70.3496 29.7078 70.3442 34.1154 70.3657 38.5229C70.3657 38.862 70.4893 39.2733 70.6936 39.5345C82.4378 54.8026 94.2304 70.0374 105.948 85.3222C113.177 94.7543 120.277 104.286 127.49 113.73C129.167 115.925 130.103 118.171 128.77 120.861C127.512 123.401 125.362 124.084 122.728 124.084C87.0925 124.04 51.4567 124.034 15.8156 124.062C13.2033 124.062 11.0211 123.473 9.73652 120.911C8.39816 118.232 9.29577 115.981 10.9244 113.757C28.3821 89.9243 45.6787 65.9633 63.4052 42.3469C65.7648 39.201 66.313 36.4275 66.2915 32.937C66.2378 23.1214 66.27 13.3058 66.2808 3.4902C66.2808 -0.244849 66.6248 -0.467174 70.1561 0.411007C71.0107 0.622215 71.9352 0.572192 72.8274 0.572192C80.261 0.583308 87.6945 0.511053 95.1227 0.627773C96.3159 0.644447 97.4984 1.46149 98.6862 1.9117C98.1004 3.12892 97.7187 4.52401 96.8964 5.52446C94.9399 7.90889 92.7738 10.1043 90.5701 12.511L90.5647 12.5332ZM46.157 72.5886C45.5067 73.4223 45.1036 73.917 44.7327 74.4283C34.6386 88.2347 24.5283 102.03 14.4826 115.87C13.8537 116.737 13.714 117.976 13.3431 119.043C14.402 119.349 15.4608 119.916 16.5197 119.916C51.7093 119.96 86.8936 119.966 122.083 119.91C123.105 119.91 124.126 119.243 125.147 118.882C124.771 117.909 124.588 116.787 123.991 115.986C118.638 108.805 113.204 101.68 107.802 94.532C102.019 86.8896 96.2406 79.2416 90.4035 71.5159C87.2753 74.684 84.276 77.7132 81.293 80.759C78.8581 83.2435 78.5249 83.2602 76.1223 80.7701C73.3058 77.8577 70.5055 74.9341 67.646 71.9605C64.4694 75.2509 61.5132 78.2134 58.6753 81.2926C57.138 82.96 55.9233 82.8878 54.4237 81.2481C51.79 78.3635 49.038 75.59 46.157 72.5886ZM78.8366 77.602C81.3628 74.9063 83.6364 72.3051 86.1035 69.9096C87.4526 68.5979 87.3881 67.7086 86.2701 66.2635C80.863 59.2602 75.5687 52.157 70.2206 45.1037C68.463 42.7805 68.0653 42.7971 66.2808 45.226C61.7981 51.3344 57.3315 57.4594 52.8596 63.5789C51.4728 65.4742 50.0969 67.3806 48.9198 69.0036C51.6932 71.8716 54.2463 74.5061 56.8693 77.2185C59.6051 74.3783 62.4968 71.4936 65.2595 68.4811C66.9096 66.6803 68.291 66.6247 69.9734 68.4422C72.7468 71.4436 75.6493 74.3172 78.842 77.602H78.8366ZM92.4244 20.8982C90.3605 18.536 88.748 16.5517 86.9958 14.7176C85.3672 13.0168 85.5015 11.605 87.1516 10.0321C88.6889 8.57031 90.081 6.9529 91.7848 5.14096H70.3711V20.8926H92.4298L92.4244 20.8982Z" fill="black"/>
<path d="M46.157 72.5888C49.0379 75.5958 51.7899 78.3637 54.4236 81.2484C55.9178 82.888 57.1379 82.9603 58.6752 81.2928C61.5131 78.2136 64.4693 75.2512 67.6459 71.9608C70.5054 74.9344 73.3111 77.8579 76.1222 80.7704C78.5248 83.2604 78.858 83.2437 81.2929 80.7592C84.276 77.7134 87.2752 74.6898 90.4034 71.5161C96.2406 79.2419 102.024 86.8843 107.802 94.5322C113.209 101.674 118.638 108.8 123.991 115.987C124.588 116.781 124.771 117.91 125.147 118.882C124.126 119.238 123.104 119.905 122.083 119.911C86.8936 119.966 51.7093 119.966 16.5196 119.916C15.4607 119.916 14.4019 119.344 13.343 119.043C13.7139 117.976 13.8536 116.737 14.4825 115.87C24.5282 102.025 34.6331 88.2293 44.7326 74.4286C45.1089 73.9172 45.5066 73.4281 46.157 72.5888Z" fill="#DAE6F3"/>
<path d="M92.4243 20.8985H70.3656V5.14685H91.7793C90.0755 6.95879 88.6834 8.5762 87.1461 10.038C85.4907 11.6109 85.3617 13.0227 86.9903 14.7235C88.7479 16.5576 90.355 18.5363 92.4189 20.9041L92.4243 20.8985Z" fill="#DAE6F3"/>
</g>
<path d="M47.8321 100.519C47.8321 98.8155 47.0505 97.9638 45.4871 97.9638H38.6621V94.1838H46.8521C48.7188 94.1838 50.1888 94.7205 51.2621 95.7938C52.3588 96.8438 52.9071 98.5005 52.9071 100.764V114.169H47.8321V100.519ZM56.907 98.2788L56.487 94.1838H61.527L61.947 98.2788V114.169H56.907V98.2788ZM67.3646 102.059C67.3646 101.172 67.4463 100.379 67.6096 99.6788C67.7963 98.9555 68.0413 98.3838 68.3446 97.9638H65.1946V94.1838H75.5896V97.9638H72.9646C72.7079 98.4772 72.5446 99.0605 72.4746 99.7138C72.4279 100.367 72.4046 101.149 72.4046 102.059V114.169H67.3646V102.059ZM89.9396 94.1838C91.8063 94.1838 93.2763 94.7438 94.3496 95.8638C95.4463 96.9838 95.9946 98.6755 95.9946 100.939V114.169H90.9196V100.694C90.9196 98.8738 90.1379 97.9638 88.5746 97.9638H83.8846V114.169H78.8446V96.4588V94.1838H89.9396Z" fill="black"/>
<defs>
<clipPath id="clip0_3_108">
<rect width="120.318" height="124.101" fill="white" transform="translate(9.08069)"/>
</clipPath>
</defs>
</svg>
