<svg width="45" height="51" viewBox="0 0 45 51" fill="none" xmlns="http://www.w3.org/2000/svg">
<path d="M22.4955 0C24.5115 0 25.6719 1.56838 26.2312 2.6124C26.5355 3.18041 26.7423 3.73628 26.8728 4.14225C26.8781 4.15879 26.8825 4.17537 26.8876 4.19148C27.0567 4.27493 27.2582 4.37593 27.4853 4.4948C28.1955 4.86659 29.1677 5.41197 30.2194 6.10724C32.2794 7.46902 34.8249 9.52346 36.1668 12.1155C37.6692 15.0178 37.5401 17.6466 37.3324 20.0919C37.1232 22.5555 36.8427 24.8211 37.6209 27.5437C38.4159 30.3246 39.9336 32.7479 41.4329 34.9235C42.1613 35.9806 42.9271 37.0382 43.5312 37.9753C44.134 38.9102 44.6835 39.883 44.9446 40.8402C45.1397 41.5553 44.7793 42.1081 44.4873 42.3785C44.2327 42.6142 43.9368 42.7452 43.7403 42.82C43.3192 42.9804 42.7723 43.093 42.1946 43.1816C41.0076 43.3636 39.3264 43.495 37.352 43.5886C33.3865 43.7768 28.0653 43.8206 22.7427 43.7739C17.4161 43.7272 12.0649 43.59 8.03283 43.4134C6.01938 43.3253 4.32086 43.2264 3.11453 43.1233C2.51645 43.0722 2.0119 43.0179 1.64238 42.9587C1.46559 42.9304 1.27055 42.8934 1.09767 42.8412C1.01885 42.8174 0.874848 42.77 0.72341 42.684C0.647298 42.6407 0.518327 42.5597 0.389912 42.4262C0.261792 42.2929 0.0695254 42.0384 0.0151247 41.6612C-0.0248224 41.384 0.0244159 41.1523 0.0474157 41.0546C0.0767162 40.9302 0.116349 40.8157 0.1517 40.7237C0.222917 40.5385 0.318886 40.3366 0.420615 40.1377C0.626905 39.7346 0.917396 39.2272 1.25277 38.6645C1.92592 37.5351 2.83802 36.0859 3.75453 34.6202C4.67762 33.144 5.60891 31.6451 6.34205 30.3832C6.70879 29.7519 7.01752 29.1942 7.24778 28.7374C7.49245 28.2521 7.60143 27.9707 7.62945 27.8587C7.70791 27.5448 7.72568 26.8829 7.67021 25.782C7.64408 25.2634 7.60578 24.6936 7.56381 24.0732C7.52213 23.4571 7.47717 22.7959 7.44153 22.1141C7.30185 19.4414 7.27717 16.2061 8.21281 13.631C9.32532 10.5693 11.9691 8.1345 14.1549 6.5249C15.2714 5.70273 16.3213 5.05795 17.0923 4.61814C17.3954 4.44528 17.6567 4.3034 17.8636 4.19413C17.8781 4.15474 17.8929 4.1136 17.9091 4.07132C18.0642 3.66709 18.3046 3.11571 18.6428 2.55364C19.2665 1.51694 20.4991 0 22.4955 0ZM22.4955 2.71033C22.012 2.71033 21.4828 3.09062 20.9651 3.95115C20.7326 4.3376 20.5574 4.73498 20.4395 5.04216C20.3813 5.19365 20.3392 5.31834 20.3124 5.4016C20.2991 5.44303 20.2893 5.4741 20.2838 5.49265C20.2815 5.50045 20.2794 5.50588 20.2785 5.50906L20.115 6.10618L19.556 6.37298L19.5549 6.37351C19.5528 6.37452 19.5488 6.37612 19.5432 6.3788C19.5321 6.38422 19.5142 6.39315 19.4898 6.40527C19.4407 6.42961 19.3657 6.46743 19.268 6.51802C19.0724 6.6193 18.7864 6.77194 18.4353 6.97221C17.7314 7.37376 16.774 7.96222 15.762 8.70746C13.6906 10.2329 11.5909 12.2702 10.7601 14.5564C10.033 16.5574 10.0077 19.2847 10.1482 21.9727C10.1826 22.631 10.226 23.2728 10.2678 23.8906C10.3093 24.5039 10.3498 25.0992 10.3774 25.646C10.4293 26.6758 10.4514 27.7459 10.2588 28.5161C10.1513 28.9461 9.91828 29.4612 9.66802 29.9576C9.40333 30.4826 9.06459 31.0923 8.68553 31.7447C7.92699 33.0504 6.97311 34.5852 6.05249 36.0574C5.12526 37.5402 4.23492 38.9546 3.5809 40.052C3.50349 40.1819 3.4302 40.3061 3.36122 40.4241C4.51129 40.522 6.16028 40.6186 8.1514 40.7057C12.1469 40.8807 17.4657 41.0171 22.766 41.0636C28.0703 41.1101 33.3334 41.066 37.2239 40.8815C39.1775 40.7888 40.7425 40.6621 41.7838 40.5025C41.815 40.4977 41.8452 40.4919 41.8749 40.4871C41.708 40.1757 41.502 39.8293 41.2534 39.4437C40.6774 38.5503 39.986 37.6004 39.2011 36.4613C37.6737 34.2448 35.9386 31.5182 35.0154 28.289C34.0756 25.0014 34.4317 22.2158 34.6316 19.8622C34.833 17.4903 34.8853 15.535 33.7603 13.3616C32.7463 11.4029 30.6838 9.66306 28.725 8.36814C27.7674 7.7351 26.8776 7.23604 26.228 6.89599C25.9039 6.72633 25.6411 6.59737 25.462 6.51167C25.3726 6.46887 25.3041 6.43697 25.2593 6.41638C25.237 6.40612 25.2208 6.39821 25.2106 6.39362C25.2055 6.39133 25.2019 6.38971 25.2 6.38886L25.1989 6.38833L24.5674 6.10883L24.4234 5.43601C24.4233 5.4355 24.4231 5.43463 24.4229 5.43389V5.43336H24.4224C24.4216 5.43012 24.4208 5.42492 24.4192 5.41801C24.4149 5.39973 24.4071 5.36913 24.3964 5.32802C24.3749 5.24543 24.341 5.1216 24.2927 4.97123C24.1945 4.66577 24.0455 4.27291 23.8417 3.89239C23.3846 3.03921 22.9187 2.71033 22.4955 2.71033ZM20.2791 5.50959V5.51012L20.2785 5.51065C20.2786 5.51025 20.2784 5.50959 20.2785 5.50906C20.2791 5.50926 20.2791 5.50956 20.2791 5.50959ZM24.4234 5.43601L24.4229 5.43495V5.43389L24.4234 5.43601Z" fill="white"/>
<path d="M16.9164 41.4728C17.6618 41.5347 18.2157 42.1886 18.1546 42.9338L18.1551 42.9344L18.153 42.9656C18.1513 42.998 18.1493 43.0512 18.1482 43.1223C18.1461 43.2654 18.1486 43.478 18.1683 43.7358C18.2085 44.2596 18.3169 44.929 18.5733 45.5764C18.8276 46.2185 19.211 46.799 19.7834 47.2217C20.3447 47.636 21.1873 47.9728 22.4974 47.9728C23.8201 47.9728 24.6705 47.6458 25.2332 47.2476C25.8032 46.8441 26.1795 46.2953 26.428 45.6939C26.6794 45.0852 26.786 44.4546 26.8255 43.9603C26.8449 43.7172 26.8472 43.5169 26.8451 43.3827C26.8441 43.316 26.8419 43.2663 26.8403 43.2366C26.8397 43.225 26.8391 43.2164 26.8387 43.2112C26.7741 42.4657 27.3261 41.8092 28.0716 41.7444C28.8173 41.6796 29.4743 42.2316 29.539 42.9772L28.1891 43.0942C29.472 42.9828 29.5358 42.9779 29.539 42.9783L29.5395 42.9799C29.5396 42.981 29.5394 42.9823 29.5395 42.9836C29.5397 42.9861 29.5398 42.9889 29.5401 42.9921C29.5406 42.9986 29.5415 43.0068 29.5422 43.0164C29.5435 43.0357 29.5453 43.0613 29.5469 43.0921C29.5502 43.1537 29.5533 43.238 29.5549 43.3414C29.5581 43.5481 29.5541 43.8351 29.5268 44.1762C29.473 44.8507 29.3251 45.7787 28.9329 46.7283C28.5376 47.6852 27.8804 48.695 26.799 49.4603C25.7102 50.2309 24.291 50.6831 22.4974 50.6831C20.6913 50.6831 19.2636 50.2068 18.1731 49.4016C17.0939 48.6046 16.4433 47.5588 16.0535 46.5748C15.6659 45.5961 15.5193 44.6391 15.4659 43.9433C15.439 43.5915 15.4353 43.2957 15.4384 43.0831C15.44 42.9766 15.4431 42.8898 15.4464 42.8269C15.448 42.7956 15.4493 42.7701 15.4506 42.7507C15.4513 42.7409 15.4522 42.7324 15.4527 42.7258C15.453 42.7226 15.453 42.7198 15.4532 42.7173C15.4533 42.7162 15.4537 42.7151 15.4538 42.7142V42.7126C15.4538 42.7119 15.4538 42.7111 16.8042 42.8232L15.4538 42.711C15.5157 41.9652 16.1706 41.4109 16.9164 41.4728Z" fill="white"/>
<path d="M38.2127 31.9819V34.6922H11.1094V31.9819H38.2127Z" fill="white"/>
</svg>
