<svg width="91" height="96" viewBox="0 0 91 96" fill="none" xmlns="http://www.w3.org/2000/svg">
<path d="M65.5 8.5C66.3284 8.5 67 9.17157 67 10C67 10.8284 66.3284 11.5 65.5 11.5H26C25.1716 11.5 24.5 10.8284 24.5 10C24.5 9.17157 25.1716 8.5 26 8.5H65.5Z" fill="black"/>
<path d="M0 91V13C0 10.5147 2.01472 8.5 4.5 8.5H16.5C17.3284 8.5 18 9.17157 18 10C18 10.8284 17.3284 11.5 16.5 11.5H4.5C3.67157 11.5 3 12.1716 3 13V91C3 91.8284 3.67157 92.5 4.5 92.5H86C86.8284 92.5 87.5 91.8284 87.5 91V13C87.5 12.1716 86.8284 11.5 86 11.5H74C73.1716 11.5 72.5 10.8284 72.5 10C72.5 9.17157 73.1716 8.5 74 8.5H86C88.4853 8.5 90.5 10.5147 90.5 13V91C90.5 93.4853 88.4853 95.5 86 95.5H4.5C2.01472 95.5 0 93.4853 0 91Z" fill="black"/>
<path d="M24.5 4.5C24.5 3.67157 23.8284 3 23 3H20.5C19.6716 3 19 3.67157 19 4.5V15.5C19 16.3284 19.6716 17 20.5 17H23C23.8284 17 24.5 16.3284 24.5 15.5V4.5ZM72.5 4.5C72.5 3.67157 71.8284 3 71 3H68.5C67.6716 3 67 3.67157 67 4.5V14.5C67 15.3284 67.6716 16 68.5 16H71C71.8284 16 72.5 15.3284 72.5 14.5V4.5ZM27.5 15.5C27.5 17.9853 25.4853 20 23 20H20.5C18.0147 20 16 17.9853 16 15.5V4.5C16 2.01472 18.0147 0 20.5 0H23C25.4853 0 27.5 2.01472 27.5 4.5V15.5ZM75.5 14.5C75.5 16.9853 73.4853 19 71 19H68.5C66.0147 19 64 16.9853 64 14.5V4.5C64 2.01472 66.0147 0 68.5 0H71C73.4853 0 75.5 2.01472 75.5 4.5V14.5Z" fill="black"/>
<path d="M89.5 25V28H1.5V25H89.5Z" fill="black"/>
<path d="M49.2622 44.2197V75H44.3911V50.1826C43.5093 50.8125 42.5575 51.3514 41.5356 51.7993C40.5278 52.2332 39.373 52.6182 38.0713 52.9541V48.7969C38.8831 48.5309 39.667 48.251 40.4229 47.957C41.1787 47.6631 41.9206 47.3341 42.6484 46.9702C43.3903 46.6063 44.1322 46.2004 44.874 45.7524C45.6299 45.3045 46.4067 44.7936 47.2046 44.2197H49.2622Z" fill="black"/>
</svg>
