<svg width="76" height="96" viewBox="0 0 76 96" fill="none" xmlns="http://www.w3.org/2000/svg">
<path d="M19.9023 55.5C19.9023 55.5 31.8371 67.5 33.8263 67.5C35.8154 67.5 55.7067 41.5 55.7067 41.5" stroke="black" stroke-width="4" stroke-linecap="round"/>
<path d="M45.3421 8H68.6087C71.3701 8 73.6087 10.2386 73.6087 13V89C73.6087 91.7614 71.3701 94 68.6087 94H7C4.23858 94 2 91.7614 2 89V13C2 10.2386 4.23858 8 7 8H30.2666" stroke="black" stroke-width="4"/>
<path d="M45.7609 10C45.7609 5.58172 42.1987 2 37.8044 2C33.4102 2 29.8479 5.58172 29.8479 10" stroke="black" stroke-width="4"/>
<path d="M48.2475 8H50.7284C51.2807 8 51.7284 8.44772 51.7284 9V15C51.7284 15.5523 51.2807 16 50.7284 16H24.8806C24.3283 16 23.8806 15.5523 23.8806 15V9C23.8806 8.44772 24.3283 8 24.8806 8H27.3616" stroke="black" stroke-width="4"/>
</svg>
