<svg width="82" height="125" viewBox="0 0 82 125" fill="none" xmlns="http://www.w3.org/2000/svg">
<path d="M33.9244 29.4018V36.1868H11.3076V29.4018H33.9244Z" fill="black"/>
<path d="M24.8777 18.0935V22.6169H11.3076V18.0935H24.8777Z" fill="black"/>
<path d="M42.9716 108.561V124.392H38.4482V108.561H42.9716Z" fill="black"/>
<path d="M12.824 45.9418L5.19154 50.1306C3.38323 51.1231 2.26172 53.006 2.26172 55.0495V85.9835C2.26172 87.4759 2.86184 88.9071 3.93006 89.9624L15.1594 101.056C16.0308 101.916 17.1615 102.475 18.3815 102.647L23.2701 103.337C25.2051 103.61 26.78 105.013 27.2541 106.887C27.6527 108.462 28.8384 109.727 30.3976 110.24L31.2893 110.534C31.8701 110.725 32.4783 110.822 33.0905 110.822H49.421C51.8727 110.822 54.0494 109.273 54.8248 106.975L55.0763 106.229C55.8516 103.932 58.0283 102.382 60.48 102.382H65.029C66.7594 102.382 68.396 101.605 69.4769 100.27L77.9107 89.8556C78.7187 88.8578 79.1589 87.6182 79.1589 86.3404V57.3656C79.1589 54.2579 76.6087 51.7386 73.4628 51.7386H36.0009C35.3479 51.7386 34.6999 51.6277 34.085 51.4108L17.5061 45.5615C15.9627 45.0169 14.2566 45.1555 12.824 45.9418Z" fill="#F6E467"/>
<path d="M24.8777 67.8505V74.6355H11.3076V67.8505H24.8777Z" fill="black"/>
<path d="M33.9254 81.4205V85.9438H13.5703V81.4205H33.9254Z" fill="black"/>
<path d="M22.616 56.5419V61.0653H11.3076V56.5419H22.616Z" fill="black"/>
<path d="M0 12.8594C6.8555e-05 11.2057 0.492335 9.58895 1.41477 8.21299L4.41978 3.7302C5.98186 1.40012 8.61192 0.000155469 11.4278 0H67.8651C70.0986 0.000222816 72.2409 0.88336 73.8202 2.45408L78.9529 7.55857C80.5323 9.12928 81.4203 11.2598 81.4205 13.4811V85.9964C81.4203 87.8982 80.7698 89.7441 79.5753 91.2291L71.2621 101.563C69.6639 103.55 67.243 104.707 64.6846 104.707H58.9597C58.1844 104.707 57.5559 105.333 57.5559 106.104C57.5559 109.959 54.4134 113.084 50.5369 113.084H32.2874C28.411 113.084 25.2684 109.959 25.2684 106.104C25.2684 105.333 24.6399 104.707 23.8646 104.707H19.1707C16.9371 104.707 14.7949 103.824 13.2155 102.253L2.46762 91.5645C0.888236 89.9938 0.000214119 87.8633 0 85.642V54.2706C0.000186957 51.8034 1.10267 49.3513 3.24629 47.8055C4.73592 46.7313 6.88422 45.2917 9.20971 44.1107C11.4569 42.9696 14.2207 41.883 16.8456 41.883C18.3785 41.883 20.0993 42.2541 21.7315 42.7337C23.4042 43.2253 25.1723 43.888 26.8559 44.5879C30.2246 45.9885 33.4197 47.6075 35.128 48.5035C35.5869 48.7441 36.0743 48.8635 36.5509 48.8635H57.5559V54.4479H36.5509C35.1193 54.4479 33.7357 54.0863 32.5068 53.4417C30.8643 52.5802 27.8369 51.0499 24.6899 49.7415C23.1156 49.087 21.5517 48.5036 20.1413 48.0891C18.6905 47.6627 17.5766 47.4674 16.8456 47.4674C15.5924 47.4674 13.8076 48.0456 11.7623 49.0843C9.7958 50.0831 7.90894 51.3407 6.54194 52.3265C5.98758 52.7262 5.61539 53.4236 5.61521 54.2706V85.642C5.61542 86.3822 5.91141 87.0927 6.43775 87.6161L17.1856 98.305C17.7119 98.8285 18.4264 99.1228 19.1707 99.1231H23.8646C27.7411 99.1231 30.8836 102.248 30.8836 106.104C30.8836 106.875 31.5121 107.5 32.2874 107.5H50.5369C51.3122 107.5 51.9407 106.875 51.9407 106.104C51.9407 102.248 55.0832 99.1231 58.9597 99.1231H64.6846C65.5368 99.1228 66.3426 98.7376 66.8753 98.076L75.1911 87.7388C75.5887 87.2442 75.8051 86.6297 75.8053 85.9964V13.4811C75.8051 12.7409 75.5091 12.0304 74.9828 11.5069L69.8501 6.40242C69.3238 5.87899 68.6094 5.58462 67.8651 5.5844H11.4278C10.4893 5.58455 9.61245 6.05119 9.09181 6.8278L6.0868 11.3106C5.77936 11.7692 5.61528 12.3082 5.61521 12.8594V37.6947H0V12.8594Z" fill="black"/>
</svg>
