<svg width="141" height="106" viewBox="0 0 141 106" fill="none" xmlns="http://www.w3.org/2000/svg">
<path d="M21.4512 83.929L3.984 78.4956C3.15445 78.2376 2.75816 77.2916 3.15524 76.5173L39.442 5.76047C39.9874 4.69692 41.526 4.76322 41.9783 5.86976L80.8923 101.065C81.3472 102.178 80.2837 103.31 79.1481 102.922L51.9974 93.6449C51.5668 93.4978 51.2346 93.1497 51.1069 92.712L39.1337 51.6566C38.7649 50.3923 37.0171 50.2907 36.5051 51.5038L23.1526 83.1369C22.8727 83.7999 22.1371 84.1423 21.4512 83.929Z" fill="#F6E467"/>
<path d="M36.6498 4.98093C38.3402 2.20392 42.4605 2.38177 43.9076 5.29372L44.0445 5.59427L82.6793 100.229C84.0342 103.548 80.8665 106.925 77.4839 105.768L50.5272 96.5447C49.2448 96.1058 48.2555 95.0675 47.8753 93.7623L37.0794 56.6983L25.3403 84.5473C24.5068 86.5244 22.3166 87.5456 20.2736 86.9095L2.93127 81.5078C0.460417 80.7382 -0.72041 77.9175 0.462312 75.6084L36.4899 5.26788L36.6498 4.98093ZM6.15366 76.68L20.7181 81.2154L33.4857 50.9308L33.6388 50.603C35.2769 47.4398 39.9367 47.7109 41.2002 51.0423L41.3154 51.3864L53.0002 91.5048L76.3863 99.5067L40.0484 10.5023L6.15366 76.68Z" fill="black"/>
<path d="M103.057 0.0293484C104.771 -0.173853 106.429 0.691976 107.246 2.19697L107.409 2.52824L140.653 79.0056C141.605 81.1974 140.53 83.7388 138.291 84.5869L81.7665 106L79.7794 100.779L134.933 79.885L102.72 5.78104C97.4891 6.84353 83.992 9.40464 74.3401 9.56414C67.6064 9.67541 59.3007 9.32113 52.7197 8.94385C49.4204 8.7547 46.5372 8.5582 44.4788 8.40944C43.4496 8.33507 42.6257 8.27221 42.0585 8.22813C41.7752 8.20611 41.5557 8.18962 41.4066 8.17769C41.3321 8.17171 41.2743 8.16718 41.2358 8.16405C41.2167 8.16251 41.202 8.16077 41.1921 8.15996C41.1873 8.15958 41.1837 8.15881 41.1811 8.1586H41.177L38.3877 7.92957L38.8469 2.36465L41.6362 2.59368H41.639C41.6411 2.59386 41.6454 2.59468 41.6499 2.59505C41.6589 2.59578 41.6729 2.59631 41.6909 2.59777C41.7274 2.60074 41.7827 2.60563 41.8549 2.6114C41.9997 2.62301 42.2146 2.6402 42.4931 2.66185C43.0512 2.70522 43.8652 2.76685 44.8834 2.84044C46.9205 2.98765 49.7751 3.18217 53.0409 3.36939C59.59 3.74484 67.7276 4.08786 74.2472 3.98014C84.0797 3.81767 98.5235 0.9582 102.69 0.0893329L103.057 0.0293484Z" fill="black"/>
</svg>
