<svg width="136" height="141" viewBox="0 0 136 141" fill="none" xmlns="http://www.w3.org/2000/svg">
<g clip-path="url(#clip0_3_101)">
<path d="M55.5 80L47 69.5L68.5 40.5L90.5 68.5L78.5 81L67.5 69.5L55.5 80Z" fill="#F6E467" stroke="black"/>
<path d="M90.5647 12.5332C92.8866 15.2011 95.1817 17.6578 97.2565 20.309C98.0036 21.2706 98.2132 22.6823 98.6701 23.8829C97.5628 24.2831 96.4663 25.0167 95.3537 25.0279C88.1029 25.1335 80.8468 25.0779 73.596 25.0779C72.6285 25.0779 71.661 25.0779 70.3496 25.0779C70.3496 29.7078 70.3442 34.1154 70.3657 38.5229C70.3657 38.862 70.4893 39.2733 70.6935 39.5345C82.4378 54.8026 94.2304 70.0374 105.948 85.3222C113.177 94.7543 120.277 104.286 127.49 113.73C129.167 115.925 130.103 118.171 128.77 120.861C127.512 123.401 125.362 124.084 122.728 124.084C87.0925 124.04 51.4567 124.034 15.8155 124.062C13.2033 124.062 11.0211 123.473 9.73647 120.911C8.39811 118.232 9.29573 115.981 10.9243 113.757C28.3821 89.9243 45.6786 65.9633 63.4051 42.3469C65.7647 39.201 66.313 36.4275 66.2915 32.937C66.2377 23.1214 66.27 13.3058 66.2807 3.4902C66.2807 -0.244849 66.6247 -0.467174 70.1561 0.411007C71.0107 0.622215 71.9352 0.572192 72.8274 0.572192C80.2609 0.583308 87.6945 0.511053 95.1226 0.627773C96.3158 0.644447 97.4983 1.46149 98.6862 1.9117C98.1003 3.12892 97.7187 4.52401 96.8963 5.52446C94.9399 7.90889 92.7738 10.1043 90.57 12.511L90.5647 12.5332ZM46.157 72.5886C45.5066 73.4223 45.1035 73.917 44.7326 74.4283C34.6385 88.2347 24.5283 102.03 14.4825 115.87C13.8537 116.737 13.7139 117.976 13.343 119.043C14.4019 119.349 15.4608 119.916 16.5196 119.916C51.7093 119.96 86.8936 119.966 122.083 119.91C123.104 119.91 124.126 119.243 125.147 118.882C124.771 117.909 124.588 116.787 123.991 115.986C118.638 108.805 113.204 101.68 107.802 94.532C102.019 86.8896 96.2406 79.2416 90.4034 71.5159C87.2752 74.684 84.276 77.7132 81.2929 80.759C78.8581 83.2435 78.5248 83.2602 76.1222 80.7701C73.3058 77.8577 70.5054 74.9341 67.646 71.9605C64.4694 75.2509 61.5132 78.2134 58.6752 81.2926C57.138 82.96 55.9232 82.8878 54.4236 81.2481C51.7899 78.3635 49.038 75.59 46.157 72.5886ZM78.8366 77.602C81.3628 74.9063 83.6364 72.3051 86.1035 69.9096C87.4526 68.5979 87.3881 67.7086 86.2701 66.2635C80.8629 59.2602 75.5686 52.157 70.2206 45.1037C68.463 42.7805 68.0652 42.7971 66.2807 45.226C61.798 51.3344 57.3315 57.4594 52.8595 63.5789C51.4728 65.4742 50.0968 67.3806 48.9197 69.0036C51.6932 71.8716 54.2463 74.5061 56.8692 77.2185C59.6051 74.3783 62.4968 71.4936 65.2595 68.4811C66.9096 66.6803 68.291 66.6247 69.9733 68.4422C72.7468 71.4436 75.6492 74.3172 78.8419 77.602H78.8366ZM92.4244 20.8982C90.3604 18.536 88.7479 16.5517 86.9957 14.7176C85.3671 13.0168 85.5015 11.605 87.1516 10.0321C88.6888 8.57031 90.0809 6.9529 91.7848 5.14096H70.3711V20.8926H92.4298L92.4244 20.8982Z" fill="black"/>
<path d="M46.1569 72.5888C49.0378 75.5958 51.7898 78.3637 54.4235 81.2484C55.9177 82.888 57.1378 82.9603 58.6751 81.2928C61.513 78.2136 64.4692 75.2512 67.6458 71.9608C70.5053 74.9344 73.311 77.8579 76.1221 80.7704C78.5247 83.2604 78.8579 83.2437 81.2928 80.7592C84.2759 77.7134 87.2751 74.6898 90.4033 71.5161C96.2405 79.2419 102.024 86.8843 107.802 94.5322C113.209 101.674 118.638 108.8 123.991 115.987C124.588 116.781 124.771 117.91 125.147 118.882C124.126 119.238 123.104 119.905 122.083 119.911C86.8935 119.966 51.7092 119.966 16.5195 119.916C15.4606 119.916 14.4018 119.344 13.3429 119.043C13.7138 117.976 13.8535 116.737 14.4824 115.87C24.5281 102.025 34.633 88.2293 44.7325 74.4286C45.1087 73.9172 45.5065 73.4281 46.1569 72.5888Z" fill="white"/>
<path d="M92.4243 20.8985H70.3655V5.14685H91.7793C90.0754 6.95879 88.6833 8.5762 87.1461 10.038C85.4906 11.6109 85.3616 13.0227 86.9902 14.7235C88.7478 16.5576 90.3549 18.5363 92.4189 20.9041L92.4243 20.8985Z" fill="white"/>
</g>
<path d="M52.6166 114.169L46.0366 103.984L42.9216 114.169H38.1266L42.0116 102.164L43.0966 99.4687L39.8416 94.1837H44.9166L47.7166 98.7337L50.2366 102.549L51.1816 99.3637L52.5816 94.1837H57.3766L53.1766 106.924L58.0066 114.169H52.6166ZM76.9482 110.389V114.169H69.5632H60.3232V110.389H69.5632V100.519C69.5632 98.8154 68.7698 97.9637 67.1832 97.9637H60.3232V94.1837H68.5832C70.4498 94.1837 71.9198 94.7204 72.9932 95.7937C74.0665 96.8437 74.6032 98.5004 74.6032 100.764V110.389H76.9482ZM91.3671 100.519C91.3671 98.8154 90.5854 97.9637 89.0221 97.9637H79.8871V94.1837H90.3871C92.2537 94.1837 93.7237 94.7204 94.7971 95.7937C95.8937 96.8437 96.4421 98.5004 96.4421 100.764V114.169H91.3671V100.519ZM79.6771 104.614L80.3771 102.269H84.7521V114.169H79.6771V104.614Z" fill="black"/>
<defs>
<clipPath id="clip0_3_101">
<rect width="120.318" height="124.101" fill="white" transform="translate(9.0806)"/>
</clipPath>
</defs>
</svg>
