<svg width="855" height="324" viewBox="0 0 855 324" fill="none" xmlns="http://www.w3.org/2000/svg">
<path d="M395.55 236.211C388.062 255.834 377.699 288.442 376.376 286.459C375.054 284.475 366.459 267.285 366.459 264.641C366.459 261.996 374.393 247.45 376.376 246.128C378.36 244.806 390.922 238.855 395.55 236.211ZM395.55 236.211C403.038 255.834 412.079 286.459 414.723 286.459C417.368 286.459 425.302 267.946 425.302 264.641C425.302 261.335 416.707 248.773 414.723 246.128C412.74 243.484 403.038 240.084 395.55 236.211Z" stroke="black" stroke-width="3" stroke-linecap="round"/>
<path d="M396.211 168.773C396.211 168.773 418.69 178.029 440.508 178.69C462.327 179.351 478.856 168.773 481.5 168.773C484.145 168.773 515.88 266.624 515.88 266.624" stroke="black" stroke-width="3" stroke-linecap="round"/>
<path d="M454.393 289.765L437.864 265.963C437.864 265.963 397.533 167.451 395.55 168.112C393.566 168.773 351.913 267.285 351.913 267.285" stroke="black" stroke-width="3" stroke-linecap="round"/>
<path d="M1.50024 185.302C1.50024 185.302 173.401 76.8718 176.707 76.2107C180.013 75.5497 256.046 124.475 260.674 124.475C265.302 124.475 429.93 1.49992 433.236 1.5C436.542 1.50008 596.542 124.475 596.542 124.475C596.542 124.475 677.158 76.2107 680.508 76.2107C683.859 76.2107 848.442 185.963 848.442 185.963" stroke="black" stroke-width="3" stroke-linecap="round"/>
<path d="M220.343 100.674C220.343 100.674 228.938 80.1777 256.045 80.1777C283.153 80.1777 290.426 103.318 290.426 103.318" stroke="black" stroke-width="3" stroke-linecap="round"/>
<path d="M127.781 145.632C127.781 145.632 110.591 166.789 112.575 166.789C114.558 166.789 117.203 166.789 118.525 167.451C119.847 168.112 106.624 181.335 107.947 181.996C109.269 182.657 115.88 180.674 116.542 181.335C117.203 181.996 102.657 199.847 102.657 201.17C102.657 202.492 127.781 201.831 127.781 201.831" stroke="black" stroke-width="3" stroke-linecap="round"/>
<path d="M736.046 146.293C736.046 146.293 753.236 167.45 751.252 167.45C749.269 167.45 746.624 167.45 745.302 168.112C743.98 168.773 757.203 181.996 755.88 182.657C754.558 183.318 747.946 181.335 747.285 181.996C746.624 182.657 761.17 200.508 761.17 201.831C761.17 203.153 736.046 202.492 736.046 202.492" stroke="black" stroke-width="3" stroke-linecap="round"/>
<path d="M202.492 146.293C202.492 146.293 185.302 167.45 187.285 167.45C189.269 167.45 191.913 167.45 193.236 168.112C194.558 168.773 181.335 181.996 182.657 182.657C183.98 183.318 190.591 181.335 191.252 181.996C191.913 182.657 177.368 200.508 177.368 201.831C177.368 203.153 202.492 202.492 202.492 202.492" stroke="black" stroke-width="3" stroke-linecap="round"/>
<path d="M661.335 146.955C661.335 146.955 678.525 168.112 676.541 168.112C674.558 168.112 671.913 168.112 670.591 168.773C669.269 169.434 682.492 182.657 681.169 183.318C679.847 183.979 673.236 181.996 672.574 182.657C671.913 183.318 686.459 201.169 686.459 202.492C686.459 203.814 661.335 203.153 661.335 203.153" stroke="black" stroke-width="3" stroke-linecap="round"/>
<path d="M277.864 146.293C277.864 146.293 260.674 167.45 262.657 167.45C264.641 167.45 267.285 167.45 268.608 168.112C269.93 168.773 256.707 181.996 258.029 182.657C259.352 183.318 265.963 181.335 266.624 181.996C267.285 182.657 252.74 200.508 252.74 201.831C252.74 203.153 277.864 202.492 277.864 202.492" stroke="black" stroke-width="3" stroke-linecap="round"/>
<path d="M585.963 146.955C585.963 146.955 603.153 168.112 601.17 168.112C599.186 168.112 596.542 168.112 595.219 168.773C593.897 169.434 607.12 182.657 605.798 183.318C604.476 183.979 597.864 181.996 597.203 182.657C596.542 183.318 611.087 201.169 611.087 202.492C611.087 203.814 585.963 203.153 585.963 203.153" stroke="black" stroke-width="3" stroke-linecap="round"/>
<path d="M128.442 146.293C128.442 146.293 145.632 167.14 143.649 167.14C141.665 167.14 139.021 167.14 137.698 167.792C136.376 168.443 149.599 181.472 148.277 182.124C146.955 182.775 140.343 180.821 139.682 181.472C139.021 182.124 153.566 199.713 153.566 201.016C153.566 202.319 128.442 201.831 128.442 201.831" stroke="black" stroke-width="3" stroke-linecap="round"/>
<path d="M735.384 146.955C735.384 146.955 718.194 167.801 720.178 167.801C722.161 167.801 724.806 167.801 726.128 168.453C727.451 169.104 714.227 182.134 715.55 182.785C716.872 183.436 723.484 181.482 724.145 182.134C724.806 182.785 710.261 200.375 710.26 201.677C710.26 202.98 735.385 202.492 735.385 202.492" stroke="black" stroke-width="3" stroke-linecap="round"/>
<path d="M203.153 146.955C203.153 146.955 220.343 167.801 218.36 167.801C216.376 167.801 213.732 167.801 212.409 168.453C211.087 169.104 224.31 182.134 222.988 182.785C221.666 183.436 215.054 181.482 214.393 182.134C213.732 182.785 228.277 200.375 228.277 201.677C228.277 202.98 203.153 202.492 203.153 202.492" stroke="black" stroke-width="3" stroke-linecap="round"/>
<path d="M660.674 147.616C660.674 147.616 643.484 168.463 645.467 168.463C647.451 168.463 650.095 168.463 651.418 169.114C652.74 169.765 639.517 182.795 640.839 183.446C642.161 184.098 648.773 182.143 649.434 182.795C650.095 183.446 635.55 201.036 635.55 202.339C635.55 203.642 660.674 203.153 660.674 203.153" stroke="black" stroke-width="3" stroke-linecap="round"/>
<path d="M278.525 146.955C278.525 146.955 295.715 167.801 293.732 167.801C291.748 167.801 289.103 167.801 287.781 168.453C286.459 169.104 299.682 182.134 298.36 182.785C297.037 183.436 290.426 181.482 289.765 182.134C289.103 182.785 303.649 200.375 303.649 201.677C303.649 202.98 278.525 202.492 278.525 202.492" stroke="black" stroke-width="3" stroke-linecap="round"/>
<path d="M585.302 147.616C585.302 147.616 568.112 168.463 570.095 168.463C572.079 168.463 574.723 168.463 576.046 169.114C577.368 169.765 564.145 182.795 565.467 183.446C566.79 184.098 573.401 182.143 574.062 182.795C574.723 183.446 560.178 201.036 560.178 202.339C560.178 203.642 585.302 203.153 585.302 203.153" stroke="black" stroke-width="3" stroke-linecap="round"/>
<line x1="127.298" y1="192.574" x2="127.298" y2="229.599" stroke="black" stroke-width="3"/>
<line y1="-1.5" x2="37.0248" y2="-1.5" transform="matrix(0 1 1 0 738.029 193.236)" stroke="black" stroke-width="3"/>
<line x1="202.009" y1="193.236" x2="202.009" y2="230.26" stroke="black" stroke-width="3"/>
<line y1="-1.5" x2="37.0248" y2="-1.5" transform="matrix(0 1 1 0 663.318 193.897)" stroke="black" stroke-width="3"/>
<line x1="277.38" y1="193.236" x2="277.38" y2="230.26" stroke="black" stroke-width="3"/>
<line y1="-1.5" x2="37.0248" y2="-1.5" transform="matrix(0 1 1 0 587.947 193.897)" stroke="black" stroke-width="3"/>
<line x1="1.50024" y1="230.744" x2="367.781" y2="230.744" stroke="black" stroke-width="3"/>
<line x1="849.103" y1="229.777" x2="503.98" y2="229.76" stroke="black" stroke-width="3"/>
<line x1="9.4342" y1="258.512" x2="39.8474" y2="258.512" stroke="black" stroke-width="3"/>
<line y1="-1.5" x2="30.4132" y2="-1.5" transform="matrix(-1 0 0 1 854.393 260.674)" stroke="black" stroke-width="3"/>
<line x1="72.9053" y1="250.578" x2="103.318" y2="250.578" stroke="black" stroke-width="3"/>
<line y1="-1.5" x2="30.4132" y2="-1.5" transform="matrix(-1 0 0 1 790.922 252.74)" stroke="black" stroke-width="3"/>
<line x1="30.5912" y1="279.669" x2="61.0044" y2="279.669" stroke="black" stroke-width="3"/>
<line y1="-1.5" x2="30.4132" y2="-1.5" transform="matrix(-1 0 0 1 833.236 281.831)" stroke="black" stroke-width="3"/>
<line x1="103.318" y1="274.38" x2="133.732" y2="274.38" stroke="black" stroke-width="3"/>
<line y1="-1.5" x2="30.4132" y2="-1.5" transform="matrix(-1 0 0 1 760.509 276.541)" stroke="black" stroke-width="3"/>
<line x1="150.922" y1="250.578" x2="180.013" y2="250.578" stroke="black" stroke-width="3"/>
<line y1="-1.5" x2="29.0909" y2="-1.5" transform="matrix(-1 0 0 1 712.905 252.74)" stroke="black" stroke-width="3"/>
<line x1="203.814" y1="250.578" x2="232.905" y2="250.578" stroke="black" stroke-width="3"/>
<line y1="-1.5" x2="29.0909" y2="-1.5" transform="matrix(-1 0 0 1 660.012 252.74)" stroke="black" stroke-width="3"/>
<line x1="252.74" y1="250.578" x2="281.831" y2="250.578" stroke="black" stroke-width="3"/>
<line y1="-1.5" x2="29.0909" y2="-1.5" transform="matrix(-1 0 0 1 611.087 252.74)" stroke="black" stroke-width="3"/>
<line x1="194.558" y1="279.669" x2="223.649" y2="279.669" stroke="black" stroke-width="3"/>
<line y1="-1.5" x2="29.0909" y2="-1.5" transform="matrix(-1 0 0 1 669.269 281.831)" stroke="black" stroke-width="3"/>
<line x1="218.36" y1="299.504" x2="247.451" y2="299.504" stroke="black" stroke-width="3"/>
<line y1="-1.5" x2="29.0909" y2="-1.5" transform="matrix(-1 0 0 1 645.467 301.665)" stroke="black" stroke-width="3"/>
<line x1="154.889" y1="291.57" x2="176.046" y2="291.57" stroke="black" stroke-width="3"/>
<line y1="-1.5" x2="21.157" y2="-1.5" transform="matrix(-1 0 0 1 708.938 293.731)" stroke="black" stroke-width="3"/>
<line x1="172.079" y1="316.694" x2="193.236" y2="316.694" stroke="black" stroke-width="3"/>
<line y1="-1.5" x2="21.157" y2="-1.5" transform="matrix(-1 0 0 1 691.748 318.855)" stroke="black" stroke-width="3"/>
<line x1="78.1945" y1="302.149" x2="98.0292" y2="302.149" stroke="black" stroke-width="3"/>
<line y1="-1.5" x2="19.8347" y2="-1.5" transform="matrix(-1 0 0 1 785.632 304.31)" stroke="black" stroke-width="3"/>
<line x1="339.814" y1="230.593" x2="259.153" y2="321.832" stroke="black" stroke-width="3"/>
<line y1="-1.5" x2="123.649" y2="-1.5" transform="matrix(0.663035 0.748588 0.748588 -0.663035 523.814 228.938)" stroke="black" stroke-width="3"/>
<path d="M334.723 288.442L351.913 266.624V286.459H438.525M438.525 286.459H515.88V266.624H438.525V286.459Z" stroke="black" stroke-width="3" stroke-linecap="round"/>
</svg>
