<svg width="86" height="132" viewBox="0 0 86 132" fill="none" xmlns="http://www.w3.org/2000/svg">
<path d="M65.374 35.495C65.3735 30.4464 62.4977 22.7536 57.121 16.3842C51.7983 10.0789 44.4491 5.56123 35.821 5.93388C18.5083 6.6827 5.94791 20.7343 5.94309 35.495C5.94227 38.8307 7.67964 43.8459 10.7312 49.8483C13.7173 55.7216 17.7319 62.1115 21.7875 68.0583C25.8363 73.9952 29.8913 79.4359 32.9366 83.3932C33.9324 84.6872 34.8294 85.8135 35.5715 86.7534C36.3444 85.6767 37.2918 84.3616 38.3573 82.8504C41.4053 78.5277 45.4687 72.6476 49.5238 66.4071C53.5849 60.1573 57.6093 53.5934 60.6091 47.891C62.1098 45.0381 63.326 42.45 64.161 40.2582C65.023 37.9952 65.374 36.4185 65.374 35.495ZM71.3171 35.495C71.3171 37.5275 70.6448 39.9289 69.721 42.3541C68.7703 44.8497 67.4388 47.668 65.8789 50.6335C62.7564 56.5693 58.6166 63.3051 54.5151 69.6172C50.4069 75.9394 46.3014 81.8847 43.2267 86.2453C41.6887 88.4266 40.4051 90.2154 39.5065 91.459C39.0577 92.0799 38.7035 92.5654 38.4618 92.8966C38.3409 93.0622 38.2462 93.1917 38.1832 93.2776C38.1521 93.32 38.1297 93.3538 38.1135 93.3758C38.1063 93.3857 38.1003 93.3933 38.0961 93.3989L38.0903 93.4047L35.821 96.4878L33.3892 93.5317L33.3834 93.5259C33.3793 93.5208 33.3737 93.5121 33.366 93.5028C33.3493 93.4824 33.3226 93.4496 33.2906 93.4104C33.2269 93.3324 33.1328 93.2187 33.012 93.0698C32.768 92.769 32.408 92.3253 31.9557 91.7592C31.0513 90.6271 29.7635 88.9927 28.2181 86.9844C25.128 82.9689 21.0027 77.4357 16.8716 71.3782C12.748 65.3316 8.58023 58.7071 5.43235 52.5157C2.34952 46.4519 -0.00119031 40.3458 4.52187e-07 35.495C0.00478694 17.5107 15.1283 0.911967 35.5599 0.0274318C46.606 -0.45034 55.5854 5.37575 61.6712 12.5851C67.702 19.7297 71.3166 28.7194 71.3171 35.495Z" fill="black"/>
<path d="M31.2578 125.112C35.0688 125.228 39.2218 125.301 43.4558 125.282L46.3851 125.271L46.408 131.083L43.4787 131.094C39.1619 131.114 34.9402 131.042 31.0747 130.924L28.1453 130.833L28.3284 125.021L31.2578 125.112ZM71.359 129.006L68.4697 129.465C64.6189 130.081 60.339 130.485 55.9341 130.737L53.0105 130.907L52.6729 125.1L55.5966 124.936C59.8754 124.691 63.9448 124.301 67.5371 123.727L70.4264 123.267L71.359 129.006ZM13.0351 124.147C13.0519 124.148 13.0767 124.15 13.1095 124.152C13.1779 124.158 13.2827 124.17 13.4185 124.181C13.69 124.202 14.0943 124.228 14.6143 124.266C15.6569 124.341 17.1717 124.449 19.0541 124.561L21.9777 124.737L21.6287 130.538L18.6993 130.362C16.7899 130.248 15.2493 130.144 14.1851 130.067C13.6546 130.029 13.2421 129.998 12.9608 129.976C12.82 129.965 12.7078 129.954 12.6347 129.948C12.6 129.945 12.5732 129.944 12.5546 129.942H12.5259C12.5259 129.942 12.523 129.938 12.7662 127.042C13.0093 124.147 13.0066 124.147 13.0065 124.147H13.0351ZM81.6003 111.733C83.9258 113.055 85.9963 115.175 86 118.323C86.0032 121.706 83.7736 124.055 81.217 125.577L78.7053 127.07L75.6901 122.086L78.2018 120.593C79.9132 119.575 80.1416 118.79 80.1413 118.329C80.1411 118.143 80.0953 117.981 79.9411 117.772C79.757 117.524 79.3863 117.176 78.6881 116.779L76.1478 115.332L79.06 110.291L81.6003 111.733ZM59.6244 107.442C63.4792 107.7 67.149 108.038 70.4207 108.526L73.3157 108.957L72.4461 114.707L69.551 114.276C66.5012 113.821 63.0093 113.495 59.2354 113.243L56.3118 113.044L56.7065 107.249L59.6244 107.442ZM38.3351 106.5C40.0886 106.569 41.8596 106.639 43.6331 106.704C45.4051 106.769 47.1848 106.833 48.9483 106.903L51.872 107.016L51.6374 112.829L48.7137 112.709C46.9603 112.64 45.1893 112.576 43.4157 112.511C41.6438 112.446 39.8642 112.382 38.1006 112.312L35.1769 112.193L35.4115 106.386L38.3351 106.5ZM17.4978 104.939C20.5477 105.393 24.0395 105.719 27.8135 105.972L30.7371 106.165L30.3424 111.966L27.4244 111.767C23.5697 111.509 19.8999 111.171 16.6282 110.683L13.7332 110.252L14.6028 104.507L17.4978 104.939ZM9.29908 95.7092L7.67421 98.1273C7.21025 98.818 6.90615 99.6935 6.90754 100.886C6.90804 101.07 6.9541 101.228 7.10779 101.436C7.29132 101.685 7.66069 102.038 8.36077 102.435L10.9011 103.877L7.98888 108.923L5.44859 107.476C3.12324 106.154 1.05285 104.04 1.04884 100.892C1.04618 98.621 1.65383 96.6086 2.79958 94.9032L4.42446 92.4852L9.29908 95.7092ZM25.2732 93.9099L22.3439 93.9269C19.3403 93.9473 16.3415 94.1917 13.7675 94.8011L10.9182 95.4765L9.55654 89.8231L12.4058 89.1476C15.573 88.3977 19.0582 88.1366 22.3038 88.1146L25.2332 88.0975L25.2732 93.9099ZM31.9329 88.6481C33.3629 88.8056 34.5496 88.9659 35.3829 89.0909C35.7987 89.1532 36.1275 89.2063 36.3555 89.2441C36.4696 89.2631 36.5626 89.2788 36.6244 89.2895C36.654 89.2946 36.6763 89.3036 36.6931 89.3066H36.7217C36.7219 89.3066 36.7245 89.3095 36.2011 92.1673C35.7089 94.8544 35.6821 95.0183 35.6804 95.0281H35.6632C35.6524 95.0262 35.6345 95.0207 35.6118 95.0168C35.5632 95.0083 35.4874 94.9934 35.3886 94.977C35.1891 94.9439 34.8907 94.8982 34.5075 94.8408C33.7385 94.7255 32.6289 94.5743 31.2864 94.4264L28.3742 94.1029L29.0207 88.3246L31.9329 88.6481Z" fill="black"/>
<path d="M50.3414 35.6585C50.3414 43.7677 43.7677 50.3414 35.6585 50.3414C27.5494 50.3414 20.9756 43.7677 20.9756 35.6585C20.9756 27.5494 27.5494 20.9756 35.6585 20.9756C43.7677 20.9756 50.3414 27.5494 50.3414 35.6585Z" fill="#F6E467"/>
<path d="M44.4683 35.6585C44.4683 30.793 40.524 26.8488 35.6585 26.8488C30.793 26.8488 26.8488 30.793 26.8488 35.6585C26.8488 40.524 30.793 44.4683 35.6585 44.4683V50.3414C27.5494 50.3414 20.9756 43.7677 20.9756 35.6585C20.9756 27.5494 27.5494 20.9756 35.6585 20.9756C43.7677 20.9756 50.3414 27.5494 50.3414 35.6585C50.3414 43.7677 43.7677 50.3414 35.6585 50.3414V44.4683C40.524 44.4683 44.4683 40.524 44.4683 35.6585Z" fill="black"/>
</svg>
