<svg width="98" height="102" viewBox="0 0 98 102" fill="none" xmlns="http://www.w3.org/2000/svg">
<g clip-path="url(#clip0_3_116)">
<path d="M37.8391 66.1852L31 57.6296L48.2988 34L66 56.8148L56.3448 67L47.4943 57.6296L37.8391 66.1852Z" fill="#F6E467" stroke="black"/>
<path d="M66.3697 10.2084C68.261 12.3814 70.1303 14.3824 71.8202 16.5418C72.4288 17.325 72.5995 18.4749 72.9716 19.4528C72.0698 19.7787 71.1767 20.3763 70.2704 20.3853C64.3646 20.4714 58.4544 20.4261 52.5486 20.4261C51.7605 20.4261 50.9725 20.4261 49.9043 20.4261C49.9043 24.1972 49.8999 27.7872 49.9174 31.3772C49.9174 31.6534 50.0181 31.9884 50.1845 32.2011C59.7503 44.6372 69.3554 57.046 78.8993 69.4956C84.7877 77.1782 90.5709 84.9422 96.4461 92.6338C97.812 94.422 98.5738 96.251 97.488 98.4421C96.4636 100.511 94.7124 101.068 92.5672 101.068C63.5416 101.032 34.5159 101.027 5.48581 101.05C3.35814 101.05 1.5807 100.57 0.53437 98.4829C-0.555734 96.3008 0.17538 94.4673 1.50189 92.6564C15.7214 73.2441 29.8096 53.7277 44.248 34.4919C46.1699 31.9295 46.6165 29.6705 46.599 26.8274C46.5552 18.8325 46.5814 10.8376 46.5902 2.84271C46.5902 -0.19952 46.8704 -0.380605 49.7467 0.334681C50.4428 0.506712 51.1958 0.465968 51.9225 0.465968C57.9772 0.475022 64.0319 0.41617 70.0822 0.511239C71.0541 0.524821 72.0172 1.19031 72.9848 1.55701C72.5076 2.54845 72.1967 3.68476 71.5269 4.49964C69.9333 6.44178 68.169 8.23 66.3741 10.1902L66.3697 10.2084ZM30.1992 59.124C29.6695 59.8031 29.3412 60.206 29.0391 60.6225C20.8173 71.8679 12.5824 83.1042 4.40008 94.3768C3.88787 95.083 3.77404 96.0925 3.47196 96.9617C4.33441 97.2107 5.19687 97.6725 6.05932 97.6725C34.7216 97.7087 63.3796 97.7132 92.0419 97.668C92.8737 97.668 93.7055 97.1247 94.5373 96.8305C94.2309 96.0382 94.082 95.1237 93.596 94.4718C89.2356 88.6228 84.8095 82.819 80.4097 76.9971C75.6991 70.7723 70.9928 64.543 66.2384 58.2503C63.6904 60.8307 61.2475 63.298 58.8178 65.7789C56.8346 67.8025 56.5631 67.8161 54.6062 65.7879C52.3122 63.4157 50.0313 61.0344 47.7022 58.6124C45.1148 61.2925 42.707 63.7054 40.3954 66.2135C39.1433 67.5716 38.1539 67.5128 36.9325 66.1773C34.7873 63.8277 32.5458 61.5686 30.1992 59.124ZM56.8171 63.2075C58.8747 61.0118 60.7265 58.8931 62.736 56.9419C63.8349 55.8735 63.7823 55.1492 62.8717 53.9721C58.4675 48.2679 54.1553 42.4823 49.7992 36.7373C48.3676 34.845 48.0437 34.8586 46.5902 36.8369C42.939 41.8122 39.3009 46.8011 35.6585 51.7855C34.529 53.3293 33.4083 54.8821 32.4495 56.204C34.7085 58.54 36.788 60.6858 38.9244 62.8951C41.1528 60.5817 43.5081 58.2321 45.7584 55.7784C47.1024 54.3116 48.2276 54.2664 49.5978 55.7467C51.8569 58.1914 54.2209 60.5319 56.8214 63.2075H56.8171ZM67.8845 17.0217C66.2033 15.0977 64.89 13.4815 63.4628 11.9875C62.1362 10.6022 62.2457 9.45232 63.5897 8.17114C64.8418 6.98051 65.9757 5.66311 67.3635 4.18727H49.9218V17.0172H67.8888L67.8845 17.0217Z" fill="black"/>
<path d="M30.1989 59.1243C32.5455 61.5735 34.787 63.828 36.9322 66.1776C38.1493 67.5131 39.1431 67.572 40.3951 66.2138C42.7067 63.7058 45.1146 61.2928 47.7019 58.6128C50.031 61.0348 52.3163 63.4161 54.6059 65.7883C56.5629 67.8164 56.8343 67.8029 58.8175 65.7792C61.2472 63.2984 63.6901 60.8356 66.2381 58.2506C70.9925 64.5433 75.7032 70.7681 80.4094 76.9975C84.8136 82.8148 89.2354 88.6186 93.5958 94.4722C94.0817 95.1195 94.2306 96.0386 94.537 96.8308C93.7052 97.1205 92.8734 97.6638 92.0416 97.6683C63.3793 97.7136 34.7214 97.7136 6.05904 97.6729C5.19658 97.6729 4.33413 97.2066 3.47168 96.9621C3.77376 96.0929 3.88758 95.0833 4.3998 94.3771C12.5822 83.1 20.8127 71.8637 29.0388 60.6228C29.3453 60.2063 29.6692 59.8079 30.1989 59.1243Z" fill="white"/>
<path d="M67.8843 17.022H49.9172V4.19211H67.3589C65.9711 5.66795 64.8372 6.98535 63.5851 8.17598C62.2367 9.45716 62.1317 10.6071 63.4582 11.9924C64.8898 13.4863 66.1988 15.098 67.8799 17.0265L67.8843 17.022Z" fill="white"/>
</g>
<defs>
<clipPath id="clip0_3_116">
<rect width="98" height="101.082" fill="white"/>
</clipPath>
</defs>
</svg>
