<svg width="211" height="242" viewBox="0 0 211 242" fill="none" xmlns="http://www.w3.org/2000/svg">
<g clip-path="url(#clip0_41_1390)">
<path d="M142.897 22.0165C146.969 26.703 150.994 31.0184 154.632 35.6756C155.943 37.3647 156.31 39.8447 157.111 41.9536C155.17 42.6566 153.247 43.9454 151.296 43.9649C138.58 44.1504 125.855 44.0527 113.139 44.0527C111.443 44.0527 109.746 44.0527 107.446 44.0527C107.446 52.1858 107.437 59.9282 107.474 67.6707C107.474 68.2663 107.691 68.9888 108.049 69.4477C128.645 96.2681 149.326 123.03 169.874 149.88C182.552 166.448 195.004 183.193 207.653 199.781C210.594 203.638 212.234 207.582 209.897 212.308C207.691 216.77 203.921 217.97 199.302 217.97C136.808 217.892 74.3139 217.883 11.8104 217.931C7.22938 217.931 3.40244 216.896 1.14964 212.395C-1.19743 207.689 0.376707 203.735 3.23277 199.83C33.8483 157.964 64.181 115.873 95.2678 74.388C99.4058 68.8619 100.367 63.9899 100.33 57.8584C100.235 40.616 100.292 23.3736 100.311 6.13122C100.311 -0.429874 100.914 -0.820416 107.107 0.722222C108.606 1.09324 110.227 1.00536 111.791 1.00536C124.828 1.02489 137.864 0.897965 150.89 1.103C152.983 1.13229 155.057 2.56753 157.14 3.35837C156.112 5.49659 155.443 7.94723 154.001 9.70467C150.57 13.8932 146.771 17.7498 142.907 21.9774L142.897 22.0165ZM65.0199 127.511C63.8794 128.976 63.1724 129.845 62.522 130.743C44.8201 154.996 27.0899 179.229 9.47275 203.54C8.36992 205.063 8.12484 207.24 7.47445 209.115C9.33136 209.652 11.1883 210.648 13.0452 210.648C74.7569 210.726 136.459 210.736 198.171 210.638C199.962 210.638 201.753 209.466 203.544 208.832C202.884 207.123 202.563 205.151 201.517 203.745C192.129 191.131 182.599 178.614 173.126 166.058C162.984 152.633 152.851 139.198 142.614 125.627C137.128 131.192 131.869 136.513 126.637 141.864C122.367 146.228 121.783 146.257 117.57 141.883C112.63 136.767 107.719 131.632 102.705 126.408C97.1341 132.188 91.9498 137.392 86.9729 142.801C84.2771 145.73 82.1469 145.603 79.517 142.723C74.8983 137.656 70.0722 132.784 65.0199 127.511ZM122.33 136.318C126.76 131.583 130.747 127.013 135.074 122.805C137.44 120.501 137.326 118.939 135.366 116.4C125.883 104.098 116.599 91.6207 107.22 79.2307C104.138 75.1496 103.44 75.1789 100.311 79.4455C92.4494 90.1757 84.6165 100.935 76.7741 111.685C74.3422 115.014 71.9291 118.363 69.8648 121.214C74.7286 126.252 79.206 130.88 83.8058 135.644C88.6036 130.655 93.6748 125.588 98.5197 120.296C101.414 117.133 103.836 117.035 106.786 120.228C111.65 125.5 116.74 130.548 122.339 136.318H122.33ZM146.159 36.7106C142.539 32.5611 139.711 29.0755 136.638 25.8535C133.782 22.8659 134.018 20.386 136.912 17.6229C139.607 15.0551 142.049 12.2139 145.037 9.03098H107.484V36.7008H146.168L146.159 36.7106Z" fill="black"/>
<path d="M65.022 127.512C70.0743 132.794 74.9004 137.656 79.5191 142.723C82.1395 145.603 84.2792 145.73 86.975 142.801C91.952 137.392 97.1362 132.188 102.707 126.408C107.722 131.632 112.642 136.768 117.572 141.884C121.785 146.258 122.37 146.228 126.639 141.864C131.871 136.514 137.131 131.202 142.616 125.627C152.853 139.199 162.995 152.623 173.128 166.058C182.611 178.604 192.131 191.121 201.519 203.745C202.566 205.141 202.886 207.123 203.546 208.832C201.755 209.457 199.964 210.629 198.173 210.638C136.461 210.736 74.759 210.736 13.0473 210.648C11.1904 210.648 9.33348 209.642 7.47656 209.115C8.12695 207.241 8.37203 205.063 9.47486 203.54C27.092 179.219 44.8128 154.986 62.5241 130.743C63.1839 129.845 63.8815 128.986 65.022 127.512Z" fill="white"/>
<path d="M146.161 36.7108H107.477V9.04102H145.03C142.042 12.2239 139.6 15.0651 136.904 17.6329C134.001 20.396 133.775 22.8759 136.631 25.8636C139.713 29.0855 142.532 32.5613 146.151 36.7206L146.161 36.7108Z" fill="white"/>
</g>
<path d="M79.5463 154.015V158.18L73.2463 174H68.2063L74.4713 157.795H64.3213V148.905H68.8713V154.015H79.5463ZM93.653 154.015C95.5196 154.015 96.9896 154.575 98.063 155.695C99.1596 156.815 99.708 158.507 99.708 160.77V174H94.633V160.525C94.633 158.705 93.8513 157.795 92.288 157.795H87.598V174H82.558V156.29V154.015H93.653ZM102.113 171.165C103 171.072 103.665 170.897 104.108 170.64C104.552 170.383 104.855 170.033 105.018 169.59C105.182 169.123 105.252 168.47 105.228 167.63V154.015H115.833C117.7 154.015 119.17 154.552 120.243 155.625C121.317 156.675 121.853 158.332 121.853 160.595V174H116.813V160.35C116.813 158.647 116.02 157.795 114.433 157.795H110.303V166.965C110.303 168.738 110.023 170.15 109.463 171.2C108.927 172.25 108.098 173.043 106.978 173.58C105.882 174.093 104.4 174.432 102.533 174.595L102.113 171.165ZM137.07 160.35C137.07 158.647 136.289 157.795 134.725 157.795H125.59V154.015H136.09C137.957 154.015 139.427 154.552 140.5 155.625C141.597 156.675 142.145 158.332 142.145 160.595V174H137.07V160.35ZM125.38 164.445L126.08 162.1H130.455V174H125.38V164.445ZM82.919 190.86C82.9657 195.643 81.5774 199.26 78.754 201.71C75.9307 204.137 71.5557 205.35 65.629 205.35H64.544L61.919 185.015H66.714L67.729 193.66C68.6624 193.193 69.2924 192.493 69.619 191.56C69.9457 190.627 70.0974 189.227 70.074 187.36V185.05H74.869V187.255C74.8224 189.822 74.309 191.91 73.329 193.52C72.349 195.107 70.6224 196.32 68.149 197.16L68.639 201.185C71.9757 200.975 74.3557 200.018 75.779 198.315C77.2024 196.588 77.9024 194.197 77.879 191.14L77.809 185.015H82.884L82.919 190.86ZM93.4447 192.89C93.4447 192.003 93.5264 191.21 93.6897 190.51C93.8764 189.787 94.1214 189.215 94.4247 188.795H85.4647V185.015H101.88V188.795H99.1497C98.7064 189.798 98.4847 191.163 98.4847 192.89V205H93.4447V192.89ZM116.194 185.015C118.061 185.015 119.531 185.575 120.604 186.695C121.701 187.815 122.249 189.507 122.249 191.77V205H117.174V191.525C117.174 189.705 116.393 188.795 114.829 188.795H110.139V205H105.099V187.29V185.015H116.194ZM145.13 195.025C145.13 198.268 144.372 200.823 142.855 202.69C141.362 204.533 139.25 205.455 136.52 205.455C135.54 205.455 134.467 205.315 133.3 205.035L133.755 201.255C134.618 201.442 135.342 201.535 135.925 201.535C137.512 201.535 138.643 201.01 139.32 199.96C139.997 198.887 140.335 197.312 140.335 195.235C140.335 192.925 140.008 191.257 139.355 190.23C138.725 189.18 137.745 188.655 136.415 188.655C135.482 188.655 134.688 188.935 134.035 189.495C133.405 190.055 133.008 190.813 132.845 191.77L130.675 205H125.635L128.05 191.525L125.25 185.015H130.5L131.9 189.005C132.39 187.558 133.125 186.485 134.105 185.785C135.085 185.062 136.205 184.7 137.465 184.7C139.962 184.7 141.863 185.563 143.17 187.29C144.477 188.993 145.13 191.572 145.13 195.025Z" fill="black"/>
<defs>
<clipPath id="clip0_41_1390">
<rect width="211" height="218" fill="white"/>
</clipPath>
</defs>
</svg>
