<svg width="248" height="248" viewBox="0 0 248 248" fill="none" xmlns="http://www.w3.org/2000/svg">
<circle cx="123.962" cy="123.962" r="123.962" fill="white"/>
<path d="M132.092 147.43L127.694 143.033L177.444 93.2827L181.842 97.6801L132.092 147.43Z" fill="black"/>
<path d="M165.007 143.034L165.007 149.253L59.2861 149.253L59.2861 143.034L165.007 143.034Z" fill="black"/>
<path d="M177.445 155.471L177.445 161.69L59.2861 161.69L59.2861 155.471L177.445 155.471Z" fill="black"/>
<path d="M194.279 169.73L189.882 174.128L146.35 130.596L150.748 126.199L194.279 169.73Z" fill="black"/>
<path d="M65.5054 161.69H59.2865V143.034H65.5054V161.69Z" fill="black"/>
<path d="M58.6295 170.692L53.0672 167.911L59.2868 155.471L64.8491 158.253L58.6295 170.692Z" fill="black"/>
<path d="M115.256 93.2828C115.256 103.587 106.903 111.939 96.5995 111.939C86.2957 111.939 77.9429 103.587 77.9429 93.2828C77.9429 82.9791 86.2957 74.6262 96.5995 74.6262C106.903 74.6262 115.256 82.9791 115.256 93.2828Z" fill="#F6E467"/>
<path d="M109.037 93.2828C109.037 86.4136 103.469 80.8451 96.5995 80.8451C89.7303 80.8451 84.1617 86.4136 84.1617 93.2828C84.1617 100.152 89.7303 105.721 96.5995 105.721V111.939C86.2957 111.939 77.9429 103.587 77.9429 93.2828C77.9429 82.9791 86.2957 74.6262 96.5995 74.6262C106.903 74.6262 115.256 82.9791 115.256 93.2828C115.256 103.587 106.903 111.939 96.5995 111.939V105.721C103.469 105.721 109.037 100.152 109.037 93.2828Z" fill="black"/>
</svg>
