<svg width="105" height="94" viewBox="0 0 105 94" fill="none" xmlns="http://www.w3.org/2000/svg">
<path d="M47.0411 3.03518C49.3355 -1.01173 55.1664 -1.01173 57.4608 3.03518L103.714 84.6182C105.978 88.6107 103.094 93.5608 98.5043 93.5608H5.99767C1.40827 93.5608 -1.47565 88.6107 0.787833 84.6182L47.0411 3.03518Z" fill="#F6E467"/>
<path d="M47.0409 3.03513C49.3352 -1.01171 55.1662 -1.01171 57.4606 3.03513L103.714 84.6185C105.907 88.4861 103.268 93.2529 98.9289 93.5468L98.5043 93.5608V89.9675C100.34 89.9673 101.493 87.9874 100.588 86.3906L54.3351 4.80723C53.4174 3.18847 51.0841 3.18847 50.1663 4.80723L3.91387 86.3906C3.00853 87.9874 4.16152 89.9673 5.99712 89.9675V93.5608C1.55121 93.5606 -1.29377 88.9151 0.590745 84.9951L0.787255 84.6185L47.0409 3.03513ZM98.5043 89.9675V93.5608H5.99712V89.9675H98.5043Z" fill="black"/>
<path d="M49.9914 64.5412L48.7853 44.3539L48.5313 36.3551H57.2284L56.911 44.3539L55.7048 64.5412H49.9914ZM52.8481 79.6499C51.3669 79.6499 50.0972 79.1209 49.0392 78.0629C48.0235 76.9625 47.5156 75.6294 47.5156 74.0635C47.5156 72.4553 48.0235 71.1222 49.0392 70.0641C50.0972 69.0061 51.3669 68.4771 52.8481 68.4771C54.414 68.4771 55.6837 69.0061 56.6571 70.0641C57.6728 71.1222 58.1806 72.4553 58.1806 74.0635C58.1806 75.6294 57.6728 76.9625 56.6571 78.0629C55.6837 79.1209 54.414 79.6499 52.8481 79.6499Z" fill="black"/>
</svg>
