<svg width="400" height="366" viewBox="0 0 400 366" fill="none" xmlns="http://www.w3.org/2000/svg">
<path d="M189.855 16.0555C194.565 8.60198 205.435 8.60195 210.145 16.0555L361.573 255.714C366.621 263.704 360.88 274.124 351.428 274.124H48.5718C39.1201 274.124 33.3785 263.704 38.4272 255.714L189.855 16.0555Z" fill="black"/>
<path d="M147.206 152.91C149.609 152.91 151.429 153.703 152.666 155.29C153.903 156.876 154.521 159.058 154.521 161.835V179.895H149.481V161.59C149.481 160.096 149.189 158.906 148.606 158.02C148.023 157.133 147.101 156.69 145.841 156.69H143.181L142.761 159.035C142.714 159.548 142.691 159.921 142.691 160.155C142.691 160.855 142.808 161.415 143.041 161.835C143.298 162.231 143.741 162.465 144.371 162.535L143.461 165.58C139.798 165.486 137.966 163.911 137.966 160.855C137.966 160.341 138.048 159.653 138.211 158.79L139.506 152.91H147.206ZM165.002 169.15C166.589 169.01 167.767 168.473 168.537 167.54C169.307 166.606 169.774 165.02 169.937 162.78L170.392 156.69H158.212V152.91H175.817L175.642 156.165L175.257 161.45C174.884 169.033 171.594 172.86 165.387 172.93L165.002 169.15ZM157.932 163.13L158.632 160.715H163.007V179.895H157.932V163.13ZM179.206 157.005L178.786 152.91H183.826L184.246 157.005V172.895H179.206V157.005ZM186.759 170.06C187.646 169.966 188.311 169.791 188.754 169.535C189.197 169.278 189.501 168.928 189.664 168.485C189.827 168.018 189.897 167.365 189.874 166.525V152.91H200.479C202.346 152.91 203.816 153.446 204.889 154.52C205.962 155.57 206.499 157.226 206.499 159.49V172.895H201.459V159.245C201.459 157.541 200.666 156.69 199.079 156.69H194.949V165.86C194.949 167.633 194.669 169.045 194.109 170.095C193.572 171.145 192.744 171.938 191.624 172.475C190.527 172.988 189.046 173.326 187.179 173.49L186.759 170.06ZM231.663 152.91V157.075L225.363 172.895H220.323L226.588 156.69H216.438V147.8H220.988V152.91H231.663ZM251.474 152.91C251.451 157.553 251.264 161.065 250.914 163.445C250.588 165.801 249.701 167.796 248.254 169.43C246.808 171.04 244.474 172.16 241.254 172.79L233.764 174.26L233.064 170.305L238.629 169.255L234.604 152.91H239.644L243.179 168.135C244.229 167.621 244.988 166.84 245.454 165.79C245.921 164.74 246.201 163.468 246.294 161.975C246.411 160.481 246.469 158.218 246.469 155.185V152.91H251.474ZM270.905 169.115V172.895H263.52H254.28V169.115H263.52V159.245C263.52 157.541 262.727 156.69 261.14 156.69H254.28V152.91H262.54C264.407 152.91 265.877 153.446 266.95 154.52C268.024 155.57 268.56 157.226 268.56 159.49V169.115H270.905ZM158.75 203.005L158.33 198.91H163.37L163.79 203.005V208.465L163.755 210.67L158.75 211.545V203.005ZM167.073 198.91H172.148L173.863 214.765C176.289 214.531 178.016 213.82 179.043 212.63C180.069 211.416 180.559 209.701 180.513 207.485V206.4C180.513 205.35 180.221 204.463 179.638 203.74C179.078 202.993 178.226 202.585 177.083 202.515L175.368 202.41L175.753 198.525L177.888 198.63C180.058 198.746 181.831 199.423 183.208 200.66C184.608 201.873 185.343 203.611 185.413 205.875L185.448 206.855C185.588 210.961 184.258 214.006 181.458 215.99C178.681 217.95 174.668 219.035 169.418 219.245L167.073 198.91ZM188.206 215.115H195.276C196.63 215.115 197.68 214.683 198.426 213.82C199.196 212.933 199.581 211.72 199.581 210.18V207.59C199.581 206.12 199.243 204.941 198.566 204.055C197.913 203.145 196.945 202.69 195.661 202.69H193.141L192.511 205.665C192.441 205.968 192.406 206.26 192.406 206.54C192.406 207.123 192.581 207.578 192.931 207.905C193.281 208.208 193.853 208.441 194.646 208.605L193.841 211.755C191.765 211.708 190.26 211.241 189.326 210.355C188.393 209.468 187.926 208.266 187.926 206.75C187.926 206.19 187.973 205.676 188.066 205.21L189.466 198.91H196.851C199.278 198.91 201.18 199.715 202.556 201.325C203.933 202.935 204.621 205.105 204.621 207.835V209.935C204.621 212.735 203.886 214.928 202.416 216.515C200.946 218.101 198.963 218.895 196.466 218.895H188.206V215.115ZM228.234 204.755C228.28 209.538 226.892 213.155 224.069 215.605C221.245 218.031 216.87 219.245 210.944 219.245H209.859L207.234 198.91H212.029L213.044 207.555C213.977 207.088 214.607 206.388 214.934 205.455C215.26 204.521 215.412 203.121 215.389 201.255V198.945H220.184V201.15C220.137 203.716 219.624 205.805 218.644 207.415C217.664 209.001 215.937 210.215 213.464 211.055L213.954 215.08C217.29 214.87 219.67 213.913 221.094 212.21C222.517 210.483 223.217 208.091 223.194 205.035L223.124 198.91H228.199L228.234 204.755ZM250.659 208.92C250.659 212.163 249.901 214.718 248.384 216.585C246.891 218.428 244.779 219.35 242.049 219.35C241.069 219.35 239.996 219.21 238.829 218.93L239.284 215.15C240.148 215.336 240.871 215.43 241.454 215.43C243.041 215.43 244.173 214.905 244.849 213.855C245.526 212.781 245.864 211.206 245.864 209.13C245.864 206.82 245.538 205.151 244.884 204.125C244.254 203.075 243.274 202.55 241.944 202.55C241.011 202.55 240.218 202.83 239.564 203.39C238.934 203.95 238.538 204.708 238.374 205.665L236.204 218.895H231.164L233.579 205.42L230.779 198.91H236.029L237.429 202.9C237.919 201.453 238.654 200.38 239.634 199.68C240.614 198.956 241.734 198.595 242.994 198.595C245.491 198.595 247.393 199.458 248.699 201.185C250.006 202.888 250.659 205.466 250.659 208.92Z" fill="white"/>
</svg>
