<svg width="391" height="357" viewBox="0 0 391 357" fill="none" xmlns="http://www.w3.org/2000/svg">
<path d="M185.358 340.96C190.068 348.409 200.932 348.409 205.642 340.96L353.165 107.663C358.217 99.6732 352.476 89.25 343.022 89.25H47.9779C38.5243 89.25 32.783 99.6732 37.8355 107.663L185.358 340.96Z" fill="white"/>
<path d="M133.044 120.11L132.624 116.015H137.664L138.084 120.11V125.57L138.049 127.775L133.044 128.65V120.11ZM156.277 116.015V120.18L149.977 136H144.937L151.202 119.795H141.052V110.905H145.602V116.015H156.277ZM158.413 132.22H164.013C165.367 132.22 166.358 131.777 166.988 130.89C167.642 130.003 167.968 128.813 167.968 127.32V124.695C167.968 123.202 167.642 122.012 166.988 121.125C166.358 120.238 165.367 119.795 164.013 119.795H158.413V116.015H165.378C167.875 116.015 169.777 116.82 171.083 118.43C172.39 120.017 173.043 122.198 173.043 124.975V127.04C173.043 129.817 172.39 132.01 171.083 133.62C169.777 135.207 167.875 136 165.378 136H158.413V132.22ZM194.763 122.35C194.763 120.647 193.981 119.795 192.418 119.795H183.283V116.015H193.783C195.649 116.015 197.119 116.552 198.193 117.625C199.289 118.675 199.838 120.332 199.838 122.595V136H194.763V122.35ZM183.073 126.445L183.773 124.1H188.148V136H183.073V126.445ZM203.591 120.11L203.171 116.015H208.211L208.631 120.11V136H203.591V120.11ZM212.649 120.11L212.229 116.015H217.269L217.689 120.11V136H212.649V120.11ZM232.941 122.35C232.941 120.647 232.16 119.795 230.596 119.795H221.461V116.015H231.961C233.828 116.015 235.298 116.552 236.371 117.625C237.468 118.675 238.016 120.332 238.016 122.595V136H232.941V122.35ZM221.251 126.445L221.951 124.1H226.326V136H221.251V126.445ZM260.74 126.025C260.74 129.268 259.981 131.823 258.465 133.69C256.971 135.533 254.86 136.455 252.13 136.455C251.15 136.455 250.076 136.315 248.91 136.035L249.365 132.255C250.228 132.442 250.951 132.535 251.535 132.535C253.121 132.535 254.253 132.01 254.93 130.96C255.606 129.887 255.945 128.312 255.945 126.235C255.945 123.925 255.618 122.257 254.965 121.23C254.335 120.18 253.355 119.655 252.025 119.655C251.091 119.655 250.298 119.935 249.645 120.495C249.015 121.055 248.618 121.813 248.455 122.77L246.285 136H241.245L243.66 122.525L240.86 116.015H246.11L247.51 120.005C248 118.558 248.735 117.485 249.715 116.785C250.695 116.062 251.815 115.7 253.075 115.7C255.571 115.7 257.473 116.563 258.78 118.29C260.086 119.993 260.74 122.572 260.74 126.025ZM112.817 168.35C112.817 166.647 112.035 165.795 110.472 165.795H101.337V162.015H111.837C113.703 162.015 115.173 162.552 116.247 163.625C117.343 164.675 117.892 166.332 117.892 168.595V182H112.817V168.35ZM101.127 172.445L101.827 170.1H106.202V182H101.127V172.445ZM120.91 162.015H125.985L127.7 177.87C130.127 177.637 131.854 176.925 132.88 175.735C133.907 174.522 134.397 172.807 134.35 170.59V169.505C134.35 168.455 134.059 167.568 133.475 166.845C132.915 166.098 132.064 165.69 130.92 165.62L129.205 165.515L129.59 161.63L131.725 161.735C133.895 161.852 135.669 162.528 137.045 163.765C138.445 164.978 139.18 166.717 139.25 168.98L139.285 169.96C139.425 174.067 138.095 177.112 135.295 179.095C132.519 181.055 128.505 182.14 123.255 182.35L120.91 162.015ZM142.324 166.11L141.904 162.015H146.944L147.364 166.11V171.57L147.329 173.775L142.324 174.65V166.11ZM165.557 162.015V166.18L159.257 182H154.217L160.482 165.795H150.332V156.905H154.882V162.015H165.557ZM189.078 167.86C189.125 172.643 187.737 176.26 184.913 178.71C182.09 181.137 177.715 182.35 171.788 182.35H170.703L168.078 162.015H172.873L173.888 170.66C174.822 170.193 175.452 169.493 175.778 168.56C176.105 167.627 176.257 166.227 176.233 164.36V162.05H181.028V164.255C180.982 166.822 180.468 168.91 179.488 170.52C178.508 172.107 176.782 173.32 174.308 174.16L174.798 178.185C178.135 177.975 180.515 177.018 181.938 175.315C183.362 173.588 184.062 171.197 184.038 168.14L183.968 162.015H189.043L189.078 167.86ZM206.709 162.015V166.18L200.409 182H195.369L201.634 165.795H191.484V156.905H196.034V162.015H206.709ZM216.972 166.11L216.552 162.015H221.592L222.012 166.11V171.57L221.977 173.775L216.972 174.65V166.11ZM227.43 169.89C227.43 169.003 227.512 168.21 227.675 167.51C227.862 166.787 228.107 166.215 228.41 165.795H225.26V162.015H235.655V165.795H233.03C232.773 166.308 232.61 166.892 232.54 167.545C232.493 168.198 232.47 168.98 232.47 169.89V182H227.43V169.89ZM238.035 178.22H243.635C244.988 178.22 245.98 177.777 246.61 176.89C247.263 176.003 247.59 174.813 247.59 173.32V170.695C247.59 169.202 247.263 168.012 246.61 167.125C245.98 166.238 244.988 165.795 243.635 165.795H238.035V162.015H245C247.497 162.015 249.398 162.82 250.705 164.43C252.012 166.017 252.665 168.198 252.665 170.975V173.04C252.665 175.817 252.012 178.01 250.705 179.62C249.398 181.207 247.497 182 245 182H238.035V178.22ZM264.157 168.35C264.157 166.647 263.376 165.795 261.812 165.795H254.987V162.015H263.177C265.044 162.015 266.514 162.552 267.587 163.625C268.684 164.675 269.232 166.332 269.232 168.595V182H264.157V168.35ZM292.202 172.025C292.202 175.268 291.444 177.823 289.927 179.69C288.434 181.533 286.322 182.455 283.592 182.455C282.612 182.455 281.539 182.315 280.372 182.035L280.827 178.255C281.691 178.442 282.414 178.535 282.997 178.535C284.584 178.535 285.716 178.01 286.392 176.96C287.069 175.887 287.407 174.312 287.407 172.235C287.407 169.925 287.081 168.257 286.427 167.23C285.797 166.18 284.817 165.655 283.487 165.655C282.554 165.655 281.761 165.935 281.107 166.495C280.477 167.055 280.081 167.813 279.917 168.77L277.747 182H272.707L275.122 168.525L272.322 162.015H277.572L278.972 166.005C279.462 164.558 280.197 163.485 281.177 162.785C282.157 162.062 283.277 161.7 284.537 161.7C287.034 161.7 288.936 162.563 290.242 164.29C291.549 165.993 292.202 168.572 292.202 172.025ZM142.337 208.015C144.204 208.015 145.674 208.552 146.747 209.625C147.844 210.675 148.392 212.332 148.392 214.595V228H143.317H132.327H131.277V208.015H136.317H142.337ZM143.317 224.22V214.35C143.317 212.647 142.536 211.795 140.972 211.795H136.317V224.22H143.317ZM159.34 215.89C159.34 215.003 159.422 214.21 159.585 213.51C159.772 212.787 160.017 212.215 160.32 211.795H151.36V208.015H167.775V211.795H165.045C164.602 212.798 164.38 214.163 164.38 215.89V228H159.34V215.89ZM184.33 228L177.75 217.815L174.635 228H169.84L173.725 215.995L174.81 213.3L171.555 208.015H176.63L179.43 212.565L181.95 216.38L182.895 213.195L184.295 208.015H189.09L184.89 220.755L189.72 228H184.33ZM210.698 208.015C212.565 208.015 214.035 208.575 215.108 209.695C216.205 210.815 216.753 212.507 216.753 214.77V228H211.678V214.525C211.678 212.705 210.897 211.795 209.333 211.795H204.643V228H199.603V210.29V208.015H210.698ZM220.664 212.11L220.244 208.015H225.284L225.704 212.11V228H220.664V212.11ZM228.601 224.22H234.201C235.555 224.22 236.546 223.777 237.176 222.89C237.83 222.003 238.156 220.813 238.156 219.32V216.695C238.156 215.202 237.83 214.012 237.176 213.125C236.546 212.238 235.555 211.795 234.201 211.795H228.601V208.015H235.566C238.063 208.015 239.965 208.82 241.271 210.43C242.578 212.017 243.231 214.198 243.231 216.975V219.04C243.231 221.817 242.578 224.01 241.271 225.62C239.965 227.207 238.063 228 235.566 228H228.601V224.22ZM262.529 224.22V228H255.144H245.904V224.22H255.144V214.35C255.144 212.647 254.35 211.795 252.764 211.795H245.904V208.015H254.164C256.03 208.015 257.5 208.552 258.574 209.625C259.647 210.675 260.184 212.332 260.184 214.595V224.22H262.529ZM161.386 260.35C161.386 258.647 160.604 257.795 159.041 257.795H149.906V254.015H160.406C162.273 254.015 163.743 254.552 164.816 255.625C165.913 256.675 166.461 258.332 166.461 260.595V274H161.386V260.35ZM149.696 264.445L150.396 262.1H154.771V274H149.696V264.445ZM177.285 261.89C177.285 261.003 177.366 260.21 177.53 259.51C177.716 258.787 177.961 258.215 178.265 257.795H169.305V254.015H185.72V257.795H182.99C182.546 258.798 182.325 260.163 182.325 261.89V274H177.285V261.89ZM189.184 258.11L188.764 254.015H193.804L194.224 258.11V263.57L194.189 265.775L189.184 266.65V258.11ZM209.092 254.015C210.959 254.015 212.429 254.575 213.502 255.695C214.599 256.815 215.147 258.507 215.147 260.77V274H210.072V260.525C210.072 258.705 209.29 257.795 207.727 257.795H203.037V274H197.997V256.29V254.015H209.092ZM219.057 258.11L218.637 254.015H223.677L224.097 258.11V263.57L224.062 265.775L219.057 266.65V258.11ZM243.935 270.22V274H236.55H227.31V270.22H236.55V260.35C236.55 258.647 235.757 257.795 234.17 257.795H227.31V254.015H235.57C237.437 254.015 238.907 254.552 239.98 255.625C241.053 256.675 241.59 258.332 241.59 260.595V270.22H243.935Z" fill="black"/>
</svg>
