<svg width="391" height="358" viewBox="0 0 391 358" fill="none" xmlns="http://www.w3.org/2000/svg">
<path d="M185.355 16.0555C190.065 8.602 200.935 8.60195 205.645 16.0555L353.176 249.546C358.224 257.537 352.483 267.956 343.031 267.956H47.9689C38.5172 267.956 32.7756 257.537 37.8243 249.546L185.355 16.0555Z" fill="#DAE6F3"/>
<path d="M174.524 100.35C174.524 98.6467 173.743 97.795 172.179 97.795H163.044V94.015H173.544C175.411 94.015 176.881 94.5517 177.954 95.625C179.051 96.675 179.599 98.3317 179.599 100.595V114H174.524V100.35ZM162.834 104.445L163.534 102.1H167.909V114H162.834V104.445ZM183.353 98.11L182.933 94.015H187.973L188.393 98.11V114H183.353V98.11ZM192.41 98.11L191.99 94.015H197.03L197.45 98.11V114H192.41V98.11ZM212.703 100.35C212.703 98.6467 211.921 97.795 210.358 97.795H201.223V94.015H211.723C213.59 94.015 215.06 94.5517 216.133 95.625C217.23 96.675 217.778 98.3317 217.778 100.595V114H212.703V100.35ZM201.013 104.445L201.713 102.1H206.088V114H201.013V104.445ZM240.501 104.025C240.501 107.268 239.743 109.823 238.226 111.69C236.733 113.533 234.621 114.455 231.891 114.455C230.911 114.455 229.838 114.315 228.671 114.035L229.126 110.255C229.99 110.442 230.713 110.535 231.296 110.535C232.883 110.535 234.015 110.01 234.691 108.96C235.368 107.887 235.706 106.312 235.706 104.235C235.706 101.925 235.38 100.257 234.726 99.23C234.096 98.18 233.116 97.655 231.786 97.655C230.853 97.655 230.06 97.935 229.406 98.495C228.776 99.055 228.38 99.8133 228.216 100.77L226.046 114H221.006L223.421 100.525L220.621 94.015H225.871L227.271 98.005C227.761 96.5583 228.496 95.485 229.476 94.785C230.456 94.0617 231.576 93.7 232.836 93.7C235.333 93.7 237.235 94.5633 238.541 96.29C239.848 97.9933 240.501 100.572 240.501 104.025ZM143.336 140.015V144.18L137.036 160H131.996L138.261 143.795H128.111V134.905H132.661V140.015H143.336ZM145.473 156.22H151.073C152.426 156.22 153.418 155.777 154.048 154.89C154.701 154.003 155.028 152.813 155.028 151.32V148.695C155.028 147.202 154.701 146.012 154.048 145.125C153.418 144.238 152.426 143.795 151.073 143.795H145.473V140.015H152.438C154.934 140.015 156.836 140.82 158.143 142.43C159.449 144.017 160.103 146.198 160.103 148.975V151.04C160.103 153.817 159.449 156.01 158.143 157.62C156.836 159.207 154.934 160 152.438 160H145.473V156.22ZM183.845 145.86C183.891 150.643 182.503 154.26 179.68 156.71C176.856 159.137 172.481 160.35 166.555 160.35H165.47L162.845 140.015H167.64L168.655 148.66C169.588 148.193 170.218 147.493 170.545 146.56C170.871 145.627 171.023 144.227 171 142.36V140.05H175.795V142.255C175.748 144.822 175.235 146.91 174.255 148.52C173.275 150.107 171.548 151.32 169.075 152.16L169.565 156.185C172.901 155.975 175.281 155.018 176.705 153.315C178.128 151.588 178.828 149.197 178.805 146.14L178.735 140.015H183.81L183.845 145.86ZM205.542 146.35C205.542 144.647 204.761 143.795 203.197 143.795H194.062V140.015H204.562C206.429 140.015 207.899 140.552 208.972 141.625C210.069 142.675 210.617 144.332 210.617 146.595V160H205.542V146.35ZM193.852 150.445L194.552 148.1H198.927V160H193.852V150.445ZM222.386 146.35C222.386 144.647 221.604 143.795 220.041 143.795H213.216V140.015H221.406C223.273 140.015 224.743 140.552 225.816 141.625C226.913 142.675 227.461 144.332 227.461 146.595V160H222.386V146.35ZM237.901 156.255C239.487 156.115 240.666 155.578 241.436 154.645C242.206 153.712 242.672 152.125 242.836 149.885L243.291 143.795H231.111V140.015H248.716L248.541 143.27L248.156 148.555C247.782 156.138 244.492 159.965 238.286 160.035L237.901 156.255ZM230.831 150.235L231.531 147.82H235.906V167H230.831V150.235ZM267.925 156.22V160H260.54H251.3V156.22H260.54V146.35C260.54 144.647 259.747 143.795 258.16 143.795H251.3V140.015H259.56C261.427 140.015 262.897 140.552 263.97 141.625C265.044 142.675 265.58 144.332 265.58 146.595V156.22H267.925ZM119.676 186.015H124.751L126.466 201.87C128.893 201.637 130.619 200.925 131.646 199.735C132.673 198.522 133.163 196.807 133.116 194.59V193.505C133.116 192.455 132.824 191.568 132.241 190.845C131.681 190.098 130.829 189.69 129.686 189.62L127.971 189.515L128.356 185.63L130.491 185.735C132.661 185.852 134.434 186.528 135.811 187.765C137.211 188.978 137.946 190.717 138.016 192.98L138.051 193.96C138.191 198.067 136.861 201.112 134.061 203.095C131.284 205.055 127.271 206.14 122.021 206.35L119.676 186.015ZM155.265 186.015V190.18L148.965 206H143.925L150.19 189.795H140.04V180.905H144.59V186.015H155.265ZM158.521 190.11L158.101 186.015H163.141L163.561 190.11V206H158.521V190.11ZM187.844 191.86C187.891 196.643 186.502 200.26 183.679 202.71C180.856 205.137 176.481 206.35 170.554 206.35H169.469L166.844 186.015H171.639L172.654 194.66C173.587 194.193 174.217 193.493 174.544 192.56C174.871 191.627 175.022 190.227 174.999 188.36V186.05H179.794V188.255C179.747 190.822 179.234 192.91 178.254 194.52C177.274 196.107 175.547 197.32 173.074 198.16L173.564 202.185C176.901 201.975 179.281 201.018 180.704 199.315C182.127 197.588 182.827 195.197 182.804 192.14L182.734 186.015H187.809L187.844 191.86ZM205.376 193.89C205.376 193.003 205.458 192.21 205.621 191.51C205.808 190.787 206.053 190.215 206.356 189.795H197.396V186.015H213.811V189.795H211.081C210.638 190.798 210.416 192.163 210.416 193.89V206H205.376V193.89ZM223.716 202.255C225.303 202.115 226.481 201.578 227.251 200.645C228.021 199.712 228.488 198.125 228.651 195.885L229.106 189.795H216.926V186.015H234.531L234.356 189.27L233.971 194.555C233.598 202.138 230.308 205.965 224.101 206.035L223.716 202.255ZM216.646 196.235L217.346 193.82H221.721V213H216.646V196.235ZM237.641 202.22H244.711C246.064 202.22 247.114 201.788 247.861 200.925C248.631 200.038 249.016 198.825 249.016 197.285V194.695C249.016 193.225 248.677 192.047 248.001 191.16C247.347 190.25 246.379 189.795 245.096 189.795H242.576L241.946 192.77C241.876 193.073 241.841 193.365 241.841 193.645C241.841 194.228 242.016 194.683 242.366 195.01C242.716 195.313 243.287 195.547 244.081 195.71L243.276 198.86C241.199 198.813 239.694 198.347 238.761 197.46C237.827 196.573 237.361 195.372 237.361 193.855C237.361 193.295 237.407 192.782 237.501 192.315L238.901 186.015H246.286C248.712 186.015 250.614 186.82 251.991 188.43C253.367 190.04 254.056 192.21 254.056 194.94V197.04C254.056 199.84 253.321 202.033 251.851 203.62C250.381 205.207 248.397 206 245.901 206H237.641V202.22ZM276.373 196.025C276.373 199.268 275.615 201.823 274.098 203.69C272.605 205.533 270.493 206.455 267.763 206.455C266.783 206.455 265.71 206.315 264.543 206.035L264.998 202.255C265.861 202.442 266.585 202.535 267.168 202.535C268.755 202.535 269.886 202.01 270.563 200.96C271.24 199.887 271.578 198.312 271.578 196.235C271.578 193.925 271.251 192.257 270.598 191.23C269.968 190.18 268.988 189.655 267.658 189.655C266.725 189.655 265.931 189.935 265.278 190.495C264.648 191.055 264.251 191.813 264.088 192.77L261.918 206H256.878L259.293 192.525L256.493 186.015H261.743L263.143 190.005C263.633 188.558 264.368 187.485 265.348 186.785C266.328 186.062 267.448 185.7 268.708 185.7C271.205 185.7 273.106 186.563 274.413 188.29C275.72 189.993 276.373 192.572 276.373 196.025ZM104.671 236.11L104.251 232.015H109.291L109.711 236.11V252H104.671V236.11ZM112.224 249.165C113.11 249.072 113.775 248.897 114.219 248.64C114.662 248.383 114.965 248.033 115.129 247.59C115.292 247.123 115.362 246.47 115.339 245.63V232.015H125.944C127.81 232.015 129.28 232.552 130.354 233.625C131.427 234.675 131.964 236.332 131.964 238.595V252H126.924V238.35C126.924 236.647 126.13 235.795 124.544 235.795H120.414V244.965C120.414 246.738 120.134 248.15 119.574 249.2C119.037 250.25 118.209 251.043 117.089 251.58C115.992 252.093 114.51 252.432 112.644 252.595L112.224 249.165ZM143.016 239.89C143.016 239.003 143.097 238.21 143.261 237.51C143.447 236.787 143.692 236.215 143.996 235.795H135.036V232.015H151.451V235.795H148.721C148.277 236.798 148.056 238.163 148.056 239.89V252H143.016V239.89ZM154.915 236.11L154.495 232.015H159.535L159.955 236.11V241.57L159.92 243.775L154.915 244.65V236.11ZM174.823 232.015C176.69 232.015 178.16 232.575 179.233 233.695C180.33 234.815 180.878 236.507 180.878 238.77V252H175.803V238.525C175.803 236.705 175.021 235.795 173.458 235.795H168.768V252H163.728V234.29V232.015H174.823ZM184.788 236.11L184.368 232.015H189.408L189.828 236.11V241.57L189.793 243.775L184.788 244.65V236.11ZM209.666 248.22V252H202.281H193.041V248.22H202.281V238.35C202.281 236.647 201.488 235.795 199.901 235.795H193.041V232.015H201.301C203.168 232.015 204.638 232.552 205.711 233.625C206.784 234.675 207.321 236.332 207.321 238.595V248.22H209.666ZM232.947 252L226.367 241.815L223.252 252H218.457L222.342 239.995L223.427 237.3L220.172 232.015H225.247L228.047 236.565L230.567 240.38L231.512 237.195L232.912 232.015H237.707L233.507 244.755L238.337 252H232.947ZM244.503 227.605C245.507 227.605 246.277 227.978 246.813 228.725C247.35 229.472 247.618 230.545 247.618 231.945C247.618 235.188 246.032 237.615 242.858 239.225L241.773 237.125C242.823 236.588 243.593 235.97 244.083 235.27C244.597 234.57 244.853 233.718 244.853 232.715C244.783 232.738 244.667 232.75 244.503 232.75C243.78 232.75 243.173 232.528 242.683 232.085C242.193 231.618 241.948 231.023 241.948 230.3C241.948 229.483 242.182 228.83 242.648 228.34C243.138 227.85 243.757 227.605 244.503 227.605ZM252.448 227.605C253.452 227.605 254.222 227.978 254.758 228.725C255.295 229.472 255.563 230.545 255.563 231.945C255.563 235.188 253.977 237.615 250.803 239.225L249.718 237.125C250.768 236.588 251.538 235.97 252.028 235.27C252.542 234.57 252.798 233.718 252.798 232.715C252.728 232.738 252.612 232.75 252.448 232.75C251.725 232.75 251.118 232.528 250.628 232.085C250.138 231.618 249.893 231.023 249.893 230.3C249.893 229.483 250.127 228.83 250.593 228.34C251.083 227.85 251.702 227.605 252.448 227.605ZM258.488 248.22H264.088C265.441 248.22 266.433 247.777 267.063 246.89C267.716 246.003 268.043 244.813 268.043 243.32V240.695C268.043 239.202 267.716 238.012 267.063 237.125C266.433 236.238 265.441 235.795 264.088 235.795H258.488V232.015H265.453C267.949 232.015 269.851 232.82 271.158 234.43C272.464 236.017 273.118 238.198 273.118 240.975V243.04C273.118 245.817 272.464 248.01 271.158 249.62C269.851 251.207 267.949 252 265.453 252H258.488V248.22ZM292.415 248.22V252H285.03H275.79V248.22H285.03V238.35C285.03 236.647 284.237 235.795 282.65 235.795H275.79V232.015H284.05C285.917 232.015 287.387 232.552 288.46 233.625C289.533 234.675 290.07 236.332 290.07 238.595V248.22H292.415Z" fill="black"/>
</svg>
